<?xml version="1.0" encoding="utf-8"?>
<!-- Generator: Adobe Illustrator 24.2.3, SVG Export Plug-In . SVG Version: 6.00 Build 0)  -->
<svg version="1.1" id="Layer_1" xmlns="http://www.w3.org/2000/svg" xmlns:xlink="http://www.w3.org/1999/xlink" x="0px" y="0px"
	 viewBox="0 0 409.6 409.6" style="enable-background:new 0 0 409.6 409.6;" xml:space="preserve">
<style type="text/css">
	.st0{fill:#FFFFFF;}
	.st1{fill:#FFFEFF;}
</style>
<path class="st0" d="M913.6,488.8c1.2-2.2,2.6-1.6,4.3-1c11.9,4.1,24,4.7,36.1,1.6c26.6-6.6,46.9-30.5,48.2-56.6
	c1.5-29.8-14.7-54.9-41.7-65c-10.6-3.9-21.5-4.4-32.7-3.1c-0.1-0.8-0.3-1.5-0.3-2.1c0.2-9.7-7.3-15.6-16.5-15.2
	c-7.7,0.3-15.4,0-23.2,0.1c-1.6,0-3.6-0.2-4.6,0.7c-1.7,1.5-3.7,3.9-3.6,5.8c0.1,1.9,2.5,3.9,4.3,5.2c1.1,0.8,3.1,0.4,4.7,0.5
	c7.6,0,15.2-0.1,22.8,0.1c1.3,0,3.6,1.3,3.7,2.2c0.5,3,0.2,6.2,0.2,9.3h-207V367c0-7.1,0-7.1,7.1-7.1c47.8,0,95.6,0,143.4,0
	c1.7,0,3.5,0,5.2-0.3c3-0.5,4.7-2.4,4.9-5.4c0.2-3-1.3-5.2-4.2-6c-1.5-0.4-3.1-0.5-4.7-0.5c-49,0-98,0-147,0
	c-11.4,0-16.7,5.2-16.7,16.5c0,22.6-0.2,45.2,0.1,67.9c0.1,7.4,1.1,14.8,1.8,22.2c0.2,1.9,0.5,3.8,0.8,5.9c-1.2-0.1-1.9,0-2.5-0.1
	c-10.6-2-20,1.3-28.6,7c-3.2,2.1-3.9,5.5-2.1,8.3c1.8,2.8,5,3.6,8.4,1.9c1.5-0.8,3-1.8,4.5-2.5c4.8-2.2,9.6-4,15.5-2.5
	c-6.8,10.2-13.3,19.9-19.8,29.6c-0.9,1.3-1.8,2.7-2.3,4.1c-0.9,2.7-0.2,5.5,2.3,6.5c2,0.8,4.7,0.4,6.9-0.3c1.3-0.4,2.2-2.2,3-3.5
	c5.9-8.7,11.7-17.5,17.5-26.2c0.8-1.2,1.6-2.2,2.8-4c1,2.5,1.8,4.2,2.3,5.9c2,8.2,0.5,16-2.8,23.7c-7.6,17.8-21.8,26-40.5,23.3
	c-1.2-0.2-2.5-1-3.4-1.8c-5.8-5.5-7.2-12.5-5.7-19.8c1.2-6.2,3.9-12,6.1-18c1.2-3.3,0.8-6.1-2.3-8c-2.8-1.7-6.4-0.8-8.2,2.4
	c-4.6,7.8-7.9,16.1-7.8,25.2c0.1,6.6,1.5,13.2,2.4,20.1c-3.5,0-7.8-0.1-12.2,0c-5.1,0.2-7.2,2.3-7.3,7.4c0,3.9,0,7.7,0,11.6
	c0.1,4.9,1.6,6.8,6.3,7.7c18.5,3.5,37,7,55.6,10.5c10.3,2,20.5,3.9,31,6c0,5.1,0.2,9.9-0.1,14.7c-0.2,3.7,0.9,6.8,3.9,9h179.7
	c3.1-2,4.2-4.8,4-8.5c-0.2-5-0.1-10-0.1-15.1c7.8-1.5,15.3-3,22.7-4.4c21.4-4,42.8-8.1,64.2-12.1c3.9-0.8,6.1-3,6-7.1
	c0-3.5,0-6.9,0-10.4c0-7.4-1.8-9.2-9.2-9.2c-17.2,0-34.3,0-51.5,0c-1.6,0-3.2,0.1-4.7,0.5c-2.8,0.7-4.2,2.6-4.3,5.5s1.3,4.9,4,5.7
	c1.6,0.5,3.4,0.6,5.1,0.6c14.6,0,29.3,0,43.9,0h4.3c0.8,4.9-3.1,3.7-4.9,4.1c-19.1,3.8-38.3,7.5-57.5,11c-9.3,1.7-18.6,4.3-27.9,4.4
	c-56,0.4-112.1,0.2-168.1,0.2c-2.4,0-4.8-0.2-7.1-0.6c-10.5-1.9-20.9-3.9-31.3-5.9c-16.4-3.1-32.8-6.3-49.3-9.4
	c-2.3-0.4-3.4-1-2.2-3.6h5.2c88.4,0,176.8,0,265.2,0c2,0,4-0.1,5.9-0.6c2.9-0.7,4.9-3.1,4.1-5.9c-0.6-2-2.6-3.9-4.5-5.3
	c-1.1-0.8-3.1-0.5-4.7-0.5c-10,0-20,0-29.9,0c-1.2,0-2.4-0.1-4.7-0.3C891.6,519.7,904.5,505.9,913.6,488.8z M926.8,446
	c0.5-11.5,0.5-23.1,0.7-34.6c0.1-6.1,0.7-6.9,6.8-7.8c1.6-0.2,3.2-0.2,4.4-0.3c10.2,0.1,19.2,6.1,22.9,15c3.7,9.1,1.6,20-5.3,26.9
	c-6.8,6.8-17.6,9-26.5,5.5C927.2,449.7,926.7,448.6,926.8,446z M924.3,461.7c11.9,4.2,23.5,3.8,34.2-3.1c10.7-7,16.5-17.2,16.8-30
	c0.3-12.3-4.7-22.5-14.5-30c-9.8-7.5-20.9-9-33.1-6.1v-14.9c20.9-5.1,43.5,4.5,54.8,23.2c11.7,19.2,9.9,43.5-4.5,60.2
	c-14.6,17-38.3,23-58,14.6C921.4,471,922.8,466.5,924.3,461.7z M730.5,576h162.8v10H730.5V576z M748.8,531.5c-13.7,0-27.4,0-41.1,0
	H703c2.2-2.9,4-5.1,5.7-7.3c5.6-7.7,9.3-16.3,10.8-25.8c0.2-1.1,0.9-2.8,1.8-3c12.8-3.7,25.1-3.5,36.4,4.7c0.6,0.5,1.2,1,1.8,1.6
	c0.5,0.6,1,1.2,2,2.5c-9.7,1.9-18.8,3.8-27.8,5.6c-3.2,0.7-6.5,1.2-9.8,2c-4.1,1-6,3.9-5.2,7.6c0.7,3.3,3.8,5,7.8,4.2
	c12.2-2.4,24.4-4.8,36.6-7.2C763.3,523.1,755.3,531.5,748.8,531.5z M864.4,523.1c-2.4,1.5-4.8,2.8-7.3,4c-6,3-12.2,4.6-19.1,4.5
	c-19-0.4-38.1-0.1-57.1-0.2c-3.1,0-6.2-0.9-9.8-1.5c5.9-10.5,7.4-20.3,2-30.2c-6-10.9-16.1-16.1-27.9-17.7c-7.1-1-14.5-0.2-21.8,0.2
	c-2.2,0.1-3.2,0-4.2-2.1c-7.1-14.2-10.6-29.2-10.8-44.9c-0.2-16.2-0.1-32.5-0.1-48.7c0-0.6,0.1-1.3,0.2-2.2H915
	c0.1,0.6,0.3,1.1,0.3,1.6c0,18.1,0.9,36.3-0.3,54.3C912.7,476.3,895.3,503.9,864.4,523.1z"/>
<path class="st0" d="M840.7,254.8c5.9,6.1,9.9,13.2,11.6,21.5c3.4,16.1-3.7,33.4-17.5,42.4c-3.3,2.2-6.8,1.8-8.9-0.9
	c-2.1-2.8-1.4-6.6,2-9c8.1-5.7,12.7-13.4,13-23.4c0.3-10.2-3.9-18.3-12-24.3c-5.6-4.2-5.6-8.2-0.1-12.3c16.1-12,16.3-34.8,0.4-46.8
	c-0.6-0.5-1.3-0.9-1.9-1.5c-2.8-2.5-3.4-5.9-1.4-8.5c2-2.7,5.4-3.3,8.5-1.2c9.1,6.1,15.3,14.4,17.6,25.2c3,14-0.2,26.6-10,37.3
	C841.6,253.6,841.2,254.1,840.7,254.8z"/>
<path class="st0" d="M895.3,284.3c-0.4,14.4-6.3,25.7-17.9,33.9c-3.6,2.6-7.4,2.3-9.4-0.7c-2.1-3-1.2-6.4,2.5-9.2
	c17.1-13,17.1-34.7,0-47.9c-3.7-2.8-4.6-6.2-2.4-9.2c2.2-3,5.7-3.3,9.5-0.6C889.1,258.9,894.9,270.3,895.3,284.3z"/>
<path class="st0" d="M807.4,287.8c-0.3,11-6.2,22.3-17.9,30.6c-3.5,2.5-7.1,2.2-9.2-0.6c-2.2-2.9-1.3-6.6,2.2-9.3
	c17.2-13.3,17.3-34.9,0.2-48c-3.7-2.8-4.6-6.3-2.5-9.2c2.3-3.2,5.7-3.3,9.8-0.5C801.1,258.6,807.5,270.9,807.4,287.8z"/>
<g>
	<path class="st0" d="M-503.3-10.5c-6.5-20.7-22.1-30.5-42.2-34.4c-7-1.4-14.3-1.5-21.9-2.2c0-2.3,0-4.9,0-7.5c-0.1-7.5-1.7-9-9.1-9
		h-69.8c-0.5-7.3-1.8-9.6-5.3-9.8c-1.3-0.1-3.3,0.2-3.8,1c-1.5,2.5-2.3,5.4-3.7,8.7h-109.2c-1.1,0-2.3-0.1-3.4,0
		c-3.6,0.3-5.8,2.5-5.8,5.6c-0.1,3.2,2,5.4,5.6,5.9c1.2,0.1,2.5,0.1,3.7,0.1h110c0.1,1,0.3,1.6,0.3,2.2c0,16.1,0.1,32.2-0.1,48.3
		c0,1.4-1,3-2.1,4c-5.5,5.1-11.1,10.1-16.8,14.9c-4.5,3.8-6.8,8.5-6.8,14.3c0,11.9-0.2,23.7,0,35.5c0.2,10.6,7.1,17.4,17.7,17.6
		c9.1,0.2,18.2,0.2,27.3,0c10.6-0.2,17.4-7.2,17.5-17.8c0.1-11.7,0-23.5,0-35.2c0-5.8-2.1-10.4-6.4-14.1c-5.6-4.9-11.3-9.8-16.7-15
		c-1.3-1.3-2.4-3.5-2.4-5.3c-0.2-15.2-0.1-30.4-0.1-45.7v-3.5h67.3c0.1,0.6,0.2,1,0.2,1.4c0,1.1,0,2.2,0,3.4
		c-0.6,30.7-5.5,60.7-14.5,90.1c-10.6,34.7-26.6,66.5-50.1,94.4c-1.5,1.8-3,2.5-5.4,2.5c-27.1-0.1-54.1,0-81.2-0.1
		c-1,0-2.1-0.1-3.5-0.2c0.7-0.6,0.9-0.9,1.2-1.1c28.1-16.2,37.7-42.7,40.2-73c0.4-4.7-2.1-7-6.9-6.6c-5.7,0.5-11.4,1.1-17,2.3
		c-29.7,6.6-51.3,22.8-61.4,52.4c-0.2,0.5-0.6,0.9-1.1,1.6c-6.6-15.8-17.5-26.8-32.9-33.5c-1.2-0.5-2.1-2-2.7-3.3
		c-17.9-40.5-26.8-83-27.7-127.2c0-1.1,0.1-2.1,0.2-3.4c15.1,0,29.8,0,44.5,0c1.6,0,3.6,0.2,4.7-0.6c1.6-1.2,3.5-3.3,3.5-5
		c0-1.7-1.8-3.8-3.3-5.2c-0.9-0.8-2.8-0.7-4.3-0.7c-16.3,0-32.7,0-49,0c-5.7,0-7.8,1.7-7.8,7.5c0.1,9.5,0.3,19,1,28.4
		c2,27.8,7.4,55,16.3,81.4c2.5,7.6,5.4,15.1,8.2,22.8c-4.4-0.6-8.4-1.2-12.5-1.6c-4.8-0.5-7.7,2.4-7.3,7.1c0.3,3.5,0.7,7,1.3,10.4
		c3.4,18.8,11.1,35.1,27.6,46.1c0.3,0.2,0.5,0.6,1.1,1.3h-4.6c-18.2,0-36.4,0-54.6,0c-6.1,0-8.7,4.5-5.6,9.5
		c12.7,20,30.7,33,54.2,35c22,1.9,44.3,0.9,66.5,1c3.3,0,5.8-2.7,5.6-5.8c-0.1-3-2.4-5.2-5.6-5.4c-1-0.1-2,0-3,0
		c-17.2,0-34.4,0-51.6,0c-10,0-19.6-1.8-28.7-6c-8.3-3.9-15.6-9.1-22.1-16.9h218.5c14.7,0,29.4,0,44.2,0c5.9,0,8.8-1.9,8.7-5.8
		c-0.1-3.8-2.9-5.6-8.6-5.6c-7.7,0-15.5,0-23.2,0c-0.9,0-1.8-0.2-2.8-0.3c3.8-5.3,7.3-10.3,11-15.2c0.7-0.9,2.1-1.7,3.3-1.9
		c17.6-3.2,34.6-8.5,50.2-17.3c27.6-15.4,48.5-37,59.6-67c2.6-7,3.8-14.6,5.6-22V0.6C-501.4-3.1-502.1-6.9-503.3-10.5z M-646.4,15.9
		c4.8,4.3,9.1,8,13.1,11.9c0.9,0.9,1.2,2.8,1.2,4.2c0.1,11.6,0.1,23.2,0,34.8c0,4.6-2,6.5-6.6,6.6c-8.9,0-17.7,0-26.6,0
		c-4.7,0-6.6-1.9-6.6-6.6c0-11.6-0.1-23.2,0-34.8c0-1.6,0.5-3.7,1.6-4.7c3.8-3.8,7.9-7.2,12.7-11.5c0,3.9-0.1,6.6,0,9.3
		c0.1,3.5,2.4,5.7,5.6,5.7c3.1,0,5.5-2.4,5.6-5.8C-646.3,22.3-646.4,19.6-646.4,15.9z M-815.5,126.8c-12.5-9.9-17.4-23.7-19.9-39.1
		c24.7-1.5,48.2,22.1,51.3,51.5C-795.7,137.6-806.4,134-815.5,126.8z M-704,71.3c-2.6,18.7-8.1,36-22.4,49.2
		c-12.6,11.5-28,16.4-44.6,18.8C-772.3,105.5-736.6,69.4-704,71.3z M-570.7-7.3c8.7-2,17-1.2,25.3,2c4.1,1.6,6.2,4.6,6.9,8.9
		c1.3,8.2-0.3,15.9-3.4,23.3c-9.7,23.3-27.4,38.6-50,48.8c-0.2,0.1-0.4,0-1.1,0C-582,49-574.7,21.3-570.7-7.3z M-516.6,34.3
		c-10.8,28.9-31.1,49.3-58.3,62.8c-9.9,4.9-20.9,7.9-31.4,11.7c-0.9,0.3-1.9,0.3-3.3,0.5c3.2-6.1,6.1-11.9,9.3-17.4
		c0.7-1.1,2.7-1.7,4.1-2.2c22.8-8.2,41.8-21.5,55.7-41.5c7.8-11.3,13.2-23.7,13.7-37.8c0.5-17.5-6.9-26.5-24.2-29.1
		c-5.9-0.9-11.9-0.8-18.1-1.2c0.4-4.8,0.8-9.7,1.3-14.5c23-5.5,49,8.8,54.4,29.8C-510,8.7-511.9,21.7-516.6,34.3z"/>
	<path class="st0" d="M-537.3,151.3c-2.3,0-3.7,0-5,0c-11.7,0-23.4,0-35.2,0c-4.6,0-6.9-1.9-6.9-5.5c0-3.7,2.4-5.8,7.1-5.8
		c16.5,0,32.9,0,49.4,0c2.8,0,5.7,0.4,6.4,3.3c0.5,2.1,0.1,5.1-1,6.8c-14.8,22.7-35.9,35.1-63,35.3c-50.6,0.4-101.2,0.1-151.9,0.1
		c-1,0-2,0.1-3-0.1c-2.8-0.8-4.5-2.8-4.3-5.7c0.1-2.9,1.8-4.9,4.8-5.3c1.4-0.2,2.7-0.1,4.1-0.1c49.1,0,98.3,0,147.4,0
		c18.6,0,34.6-6.2,47.8-19.4C-539.7,154-538.9,153.1-537.3,151.3z"/>
</g>
<g>
	<path class="st1" d="M311.8,264.6c1,0.2,1.6,0.3,2.2,0.5c17.3,5.4,33.8,3.1,48.4-7.5c22.2-16.1,30.5-38.6,27.4-65.5
		c-4-34.8-36.9-65.8-77.2-53.2v-23.8c0-7.7-1.4-9-9.2-9c-3.1,0-6.2,0.1-9.3-0.1c-1.1-0.1-2.5-0.5-3.2-1.3
		c-9-11.1-20.8-18.2-33.9-23.2c-38.4-14.4-77.4-15-116.7-4.1c-14.4,4-28.4,9.7-38.9,20.6c-6.3,6.6-12.5,9-21,8.1
		c-5.4-0.6-7.4,1.9-7.4,7.3c0,12.1,0,24.2,0,36.3v4.2H45.3c-6.5,0-8.1,1.7-8.1,8.2v135.2c-0.6,0.2-0.7,0.3-0.9,0.3
		c-3.5,0-7,0-10.5,0.1c-5.4,0.1-7.9,3.8-6,8.9c1.8,4.9,3.7,9.8,5.8,14.5c5.4,12,14.6,18.5,27.8,18.5c93,0.1,185.9,0.1,278.9,0
		c13,0,22.2-6.4,27.6-18.2c2-4.4,3.7-9,5.5-13.5c2.6-6.6,0.3-10.1-6.8-10.1h-65.8C303.3,288.3,309,277.3,311.8,264.6z M312.7,186
		c0.1-2,0.9-4.4,2.2-6c7.6-9.2,19.4-10.4,28.4-2.9c15.2,12.5,14.5,38.7-1.2,50.5c-11.1,8.5-23.5,2.1-28.7-5.6
		c-0.7-1-0.8-2.6-0.9-3.9c-0.1-5.5,0-11,0-16.5C312.6,196.5,312.4,191.2,312.7,186z M312.6,248.4c0.2-3.2,0.1-6.5,0.1-9.8
		c3.7,1.5,7.1,3.4,10.8,4.3c14.2,3.3,25.1-2.5,33.7-13.3c14.4-18.1,12-45.6-4.9-60.7c-11.5-10.2-24.3-11.6-37.9-4.1
		c-0.4,0.2-0.8,0.4-1.7,0.8c0-4.2-0.2-8.1,0.1-11.9c0.1-1,1.6-2.3,2.8-2.7c13.1-5,25.7-3.7,37.6,3.5c33.4,20.2,33.7,74,0.5,94.5
		c-12,7.4-24.6,8.8-38,4C313.3,252.1,312.4,251,312.6,248.4z M275,105.8c-1.2,0.1-2.1,0.3-3,0.3c-6,0-12,0-18,0
		c-5.2,0-7.3,2-7.3,7.2c0,13.4,0,26.7,0,40c0,5.2-2.2,9.1-7,11.4c-4.4,2.1-8.5,1.4-12.3-1.4c-3.4-2.6-4.7-6.3-4.7-10.5
		c0-13,0-26,0-38.9c0-6-1.8-7.8-7.8-7.8c-33.3,0-66.6,0-99.9,0h-4.9C147.8,74.4,238.3,74.5,275,105.8z M49.3,166.1h59.5v59.5H49.3
		V166.1z M49.3,238.1h59.5v59.5H49.3V238.1z M351.1,309.9c-2.7,12.3-9.5,17.9-21.7,17.9c-91.1,0-182.2,0-273.3,0
		c-12.2,0-19-5.5-21.7-17.9H351.1z M180.7,238v59.5h-59.5V238H180.7z M121.2,225.6v-59.5h59.5v59.5H121.2z M272.1,296.7
		c-1.5,0.6-3.1,1.1-4.6,1.1c-24.2,0.1-48.4,0.1-72.6,0c-0.5,0-1-0.1-2-0.2V162.2c0-6.5-1.7-8.2-8.1-8.2H85.2v-35.7h125.7
		c0,11.6,0,23,0,34.5c0,2.2,0.1,4.5,0.6,6.7c2.9,12.2,13.8,19.8,26.2,18.5c11.8-1.2,21-11.6,21-23.8c0.1-11.6,0-23.2,0.1-34.8
		c0-0.2,0.1-0.5,0.3-0.9h41.5c0.1,1.2,0.1,2.2,0.1,3.3c0,43.7,0,87.4,0,131C300.6,272.5,289.6,289.4,272.1,296.7z"/>
	<path class="st1" d="M97,184.2c-0.1-4-2.3-6.2-6.3-6.2c-7.7-0.1-15.5-0.1-23.2,0c-4,0-6.3,2.2-6.3,6.2c-0.1,7.7-0.1,15.5,0,23.2
		c0,4.2,2.2,6.4,6.5,6.4c7.6,0.1,15.2,0.1,22.8,0c4.3,0,6.4-2.2,6.5-6.4c0.1-3.7,0-7.5,0-11.2C97,192.2,97.1,188.2,97,184.2z
		 M84.7,201.9H73.3v-11.7h11.4V201.9z"/>
	<path class="st1" d="M162.3,178c-3.7-0.1-7.5,0-11.2,0c-3.9,0-7.7-0.1-11.6,0c-4.3,0.1-6.4,2.2-6.5,6.5c-0.1,7.6-0.1,15.2,0,22.8
		c0,4.3,2.2,6.5,6.4,6.6c7.7,0.1,15.5,0.1,23.2,0c4,0,6.2-2.3,6.3-6.3c0.1-7.7,0.1-15.5,0-23.2C168.8,180.2,166.6,178,162.3,178z
		 M156.6,201.9h-11.4v-11.7h11.4V201.9z"/>
	<path class="st1" d="M97,256.4c-0.1-4.3-2.2-6.4-6.5-6.5c-7.6-0.1-15.2,0-22.8,0c-4.3,0-6.5,2.2-6.6,6.4c-0.1,7.7-0.1,15.5,0,23.2
		c0,4,2.2,6.3,6.3,6.3c7.7,0.1,15.5,0.1,23.2,0c4.2,0,6.3-2.3,6.4-6.5c0-1.6,0-3.2,0-4.8c0-2.1,0-4.3,0-6.4v-3.7
		C97,261.7,97,259,97,256.4z M84.8,273.6H73.3V262h11.5V273.6z"/>
	<path class="st1" d="M139,285.7c7.9,0.1,15.7,0.1,23.6,0c4,0,6.2-2.3,6.2-6.3c0.1-3.8,0-7.5,0-11.2c0-4.1,0.1-8.2,0-12.3
		c-0.1-3.6-2.3-5.9-5.9-5.9c-8-0.1-16-0.1-24,0c-3.8,0-6,2.3-6,6.1c-0.1,7.9-0.1,15.7,0,23.6C133,283.4,135.3,285.7,139,285.7z
		 M145.2,262h11.6v11.5h-11.6V262z"/>
</g>
</svg>
