<?xml version="1.0" encoding="utf-8"?>
<!-- Generator: Adobe Illustrator 24.2.3, SVG Export Plug-In . SVG Version: 6.00 Build 0)  -->
<svg version="1.1" id="Layer_1" xmlns="http://www.w3.org/2000/svg" xmlns:xlink="http://www.w3.org/1999/xlink" x="0px" y="0px"
	 viewBox="0 0 409.6 409.6" style="enable-background:new 0 0 409.6 409.6;" xml:space="preserve">
<style type="text/css">
	.st0{fill:#FFFFFF;}
</style>
<path class="st0" d="M305.8,300.9c1.2-2.2,2.6-1.6,4.3-1c11.9,4.1,24,4.7,36.1,1.6c26.6-6.6,46.9-30.5,48.2-56.6
	c1.5-29.8-14.7-54.9-41.7-65c-10.6-3.9-21.5-4.4-32.7-3.1c-0.1-0.8-0.3-1.5-0.3-2.1c0.2-9.7-7.3-15.6-16.5-15.2
	c-7.7,0.3-15.4,0-23.2,0.1c-1.6,0-3.6-0.2-4.6,0.7c-1.7,1.5-3.7,3.9-3.6,5.8c0.1,1.9,2.5,3.9,4.3,5.2c1.1,0.8,3.1,0.4,4.7,0.5
	c7.6,0,15.2-0.1,22.8,0.1c1.3,0,3.6,1.3,3.7,2.2c0.5,3,0.2,6.2,0.2,9.3h-207V179c0-7.1,0-7.1,7.1-7.1c47.8,0,95.6,0,143.4,0
	c1.7,0,3.5,0,5.2-0.3c3-0.5,4.7-2.4,4.9-5.4c0.2-3-1.3-5.2-4.2-6c-1.5-0.4-3.1-0.5-4.7-0.5c-49,0-98,0-147,0
	c-11.4,0-16.7,5.2-16.7,16.5c0,22.6-0.2,45.2,0.1,67.9c0.1,7.4,1.1,14.8,1.8,22.2c0.2,1.9,0.5,3.8,0.8,5.9c-1.2-0.1-1.9,0-2.5-0.1
	c-10.6-2-20,1.3-28.6,7c-3.2,2.1-3.9,5.5-2.1,8.3c1.8,2.8,5,3.6,8.4,1.9c1.5-0.8,3-1.8,4.5-2.5c4.8-2.2,9.6-4,15.5-2.5
	c-6.8,10.2-13.3,19.9-19.8,29.6c-0.9,1.3-1.8,2.7-2.3,4.1c-0.9,2.7-0.2,5.5,2.3,6.5c2,0.8,4.7,0.4,6.9-0.3c1.3-0.4,2.2-2.2,3-3.5
	c5.9-8.7,11.7-17.5,17.5-26.2c0.8-1.2,1.6-2.2,2.8-4c1,2.5,1.8,4.2,2.3,5.9c2,8.2,0.5,16-2.8,23.7c-7.6,17.8-21.8,26-40.5,23.3
	c-1.2-0.2-2.5-1-3.4-1.8c-5.8-5.5-7.2-12.5-5.7-19.8c1.2-6.2,3.9-12,6.1-18c1.2-3.3,0.8-6.1-2.3-8c-2.8-1.7-6.4-0.8-8.2,2.4
	c-4.6,7.8-7.9,16.1-7.8,25.2c0.1,6.6,1.5,13.2,2.4,20.1c-3.5,0-7.8-0.1-12.2,0c-5.1,0.2-7.2,2.3-7.3,7.4c0,3.9,0,7.7,0,11.6
	c0.1,4.9,1.6,6.8,6.3,7.7c18.5,3.5,37,7,55.6,10.5c10.3,2,20.5,3.9,31,6c0,5.1,0.2,9.9-0.1,14.7c-0.2,3.7,0.9,6.8,3.9,9h179.7
	c3.1-2,4.2-4.8,4-8.5c-0.2-5-0.1-10-0.1-15.1c7.8-1.5,15.3-3,22.7-4.4c21.4-4,42.8-8.1,64.2-12.1c3.9-0.8,6.1-3,6-7.1
	c0-3.5,0-6.9,0-10.4c0-7.4-1.8-9.2-9.2-9.2c-17.2,0-34.3,0-51.5,0c-1.6,0-3.2,0.1-4.7,0.5c-2.8,0.7-4.2,2.6-4.3,5.5s1.3,4.9,4,5.7
	c1.6,0.5,3.4,0.6,5.1,0.6c14.6,0,29.3,0,43.9,0h4.3c0.8,4.9-3.1,3.7-4.9,4.1c-19.1,3.8-38.3,7.5-57.5,11c-9.3,1.7-18.6,4.3-27.9,4.4
	c-56,0.4-112.1,0.2-168.1,0.2c-2.4,0-4.8-0.2-7.1-0.6c-10.5-1.9-20.9-3.9-31.3-5.9c-16.4-3.1-32.8-6.3-49.3-9.4
	c-2.3-0.4-3.4-1-2.2-3.6h5.2c88.4,0,176.8,0,265.2,0c2,0,4-0.1,5.9-0.6c2.9-0.7,4.9-3.1,4.1-5.9c-0.6-2-2.6-3.9-4.5-5.3
	c-1.1-0.8-3.1-0.5-4.7-0.5c-10,0-20,0-29.9,0c-1.2,0-2.4-0.1-4.7-0.3C283.8,331.7,296.7,318,305.8,300.9z M319,258
	c0.5-11.5,0.5-23.1,0.7-34.6c0.1-6.1,0.7-6.9,6.8-7.8c1.6-0.2,3.2-0.2,4.4-0.3c10.2,0.1,19.2,6.1,22.9,15c3.7,9.1,1.6,20-5.3,26.9
	c-6.8,6.8-17.6,9-26.5,5.5C319.4,261.8,318.9,260.6,319,258z M316.5,273.7c11.9,4.2,23.5,3.8,34.2-3.1c10.7-7,16.5-17.2,16.8-30
	c0.3-12.3-4.7-22.5-14.5-30c-9.8-7.5-20.9-9-33.1-6.1v-14.9c20.9-5.1,43.5,4.5,54.8,23.2c11.7,19.2,9.9,43.5-4.5,60.2
	c-14.6,17-38.3,23-58,14.6C313.6,283.1,315,278.6,316.5,273.7z M122.7,388.1h162.8v10H122.7V388.1z M141,343.5
	c-13.7,0-27.4,0-41.1,0h-4.7c2.2-2.9,4-5.1,5.7-7.3c5.6-7.7,9.3-16.3,10.8-25.8c0.2-1.1,0.9-2.8,1.8-3c12.8-3.7,25.1-3.5,36.4,4.7
	c0.6,0.5,1.2,1,1.8,1.6c0.5,0.6,1,1.2,2,2.5c-9.7,1.9-18.8,3.8-27.8,5.6c-3.2,0.7-6.5,1.2-9.8,2c-4.1,1-6,3.9-5.2,7.6
	c0.7,3.3,3.8,5,7.8,4.2c12.2-2.4,24.4-4.8,36.6-7.2C155.4,335.1,147.5,343.5,141,343.5z M256.6,335.1c-2.4,1.5-4.8,2.8-7.3,4
	c-6,3-12.2,4.6-19.1,4.5c-19-0.4-38.1-0.1-57.1-0.2c-3.1,0-6.2-0.9-9.8-1.5c5.9-10.5,7.4-20.3,2-30.2c-6-10.9-16.1-16.1-27.9-17.7
	c-7.1-1-14.5-0.2-21.8,0.2c-2.2,0.1-3.2,0-4.2-2.1c-7.1-14.2-10.6-29.2-10.8-44.9c-0.2-16.2-0.1-32.5-0.1-48.7
	c0-0.6,0.1-1.3,0.2-2.2h206.5c0.1,0.6,0.3,1.1,0.3,1.6c0,18.1,0.9,36.3-0.3,54.3C304.8,288.4,287.5,316,256.6,335.1z"/>
<path class="st0" d="M232.9,66.9c5.9,6.1,9.9,13.2,11.6,21.5c3.4,16.1-3.7,33.4-17.5,42.4c-3.3,2.2-6.8,1.8-8.9-0.9
	c-2.1-2.8-1.4-6.6,2-9c8.1-5.7,12.7-13.4,13-23.4c0.3-10.2-3.9-18.3-12-24.3c-5.6-4.2-5.6-8.2-0.1-12.3c16.1-12,16.3-34.8,0.4-46.8
	c-0.6-0.5-1.3-0.9-1.9-1.5c-2.8-2.5-3.4-5.9-1.4-8.5c2-2.7,5.4-3.3,8.5-1.2c9.1,6.1,15.3,14.4,17.6,25.2c3,14-0.2,26.6-10,37.3
	C233.8,65.7,233.4,66.2,232.9,66.9z"/>
<path class="st0" d="M287.5,96.4c-0.4,14.4-6.3,25.7-17.9,33.9c-3.6,2.6-7.4,2.3-9.4-0.7c-2.1-3-1.2-6.4,2.5-9.2
	c17.1-13,17.1-34.7,0-47.9c-3.7-2.8-4.6-6.2-2.4-9.2c2.2-3,5.7-3.3,9.5-0.6C281.3,71,287.1,82.3,287.5,96.4z"/>
<path class="st0" d="M199.6,99.9c-0.3,11-6.2,22.3-17.9,30.6c-3.5,2.5-7.1,2.2-9.2-0.6c-2.2-2.9-1.3-6.6,2.2-9.3
	c17.2-13.3,17.3-34.9,0.2-48c-3.7-2.8-4.6-6.3-2.5-9.2c2.3-3.2,5.7-3.3,9.8-0.5C193.3,70.7,199.7,83,199.6,99.9z"/>
</svg>
