<?xml version="1.0" encoding="utf-8"?>
<!-- Generator: Adobe Illustrator 24.2.3, SVG Export Plug-In . SVG Version: 6.00 Build 0)  -->
<svg version="1.1" id="Layer_1" xmlns="http://www.w3.org/2000/svg" xmlns:xlink="http://www.w3.org/1999/xlink" x="0px" y="0px"
	 viewBox="0 0 409.6 409.6" style="enable-background:new 0 0 409.6 409.6;" xml:space="preserve">
<style type="text/css">
	.st0{fill:#FFFFFF;}
	.st1{fill:#FFFEFF;}
</style>
<path class="st0" d="M913.6,488.8c1.2-2.2,2.6-1.6,4.3-1c11.9,4.1,24,4.7,36.1,1.6c26.6-6.6,46.9-30.5,48.2-56.6
	c1.5-29.8-14.7-54.9-41.7-65c-10.6-3.9-21.5-4.4-32.7-3.1c-0.1-0.8-0.3-1.5-0.3-2.1c0.2-9.7-7.3-15.6-16.5-15.2
	c-7.7,0.3-15.4,0-23.2,0.1c-1.6,0-3.6-0.2-4.6,0.7c-1.7,1.5-3.7,3.9-3.6,5.8c0.1,1.9,2.5,3.9,4.3,5.2c1.1,0.8,3.1,0.4,4.7,0.5
	c7.6,0,15.2-0.1,22.8,0.1c1.3,0,3.6,1.3,3.7,2.2c0.5,3,0.2,6.2,0.2,9.3h-207V367c0-7.1,0-7.1,7.1-7.1c47.8,0,95.6,0,143.4,0
	c1.7,0,3.5,0,5.2-0.3c3-0.5,4.7-2.4,4.9-5.4c0.2-3-1.3-5.2-4.2-6c-1.5-0.4-3.1-0.5-4.7-0.5c-49,0-98,0-147,0
	c-11.4,0-16.7,5.2-16.7,16.5c0,22.6-0.2,45.2,0.1,67.9c0.1,7.4,1.1,14.8,1.8,22.2c0.2,1.9,0.5,3.8,0.8,5.9c-1.2-0.1-1.9,0-2.5-0.1
	c-10.6-2-20,1.3-28.6,7c-3.2,2.1-3.9,5.5-2.1,8.3c1.8,2.8,5,3.6,8.4,1.9c1.5-0.8,3-1.8,4.5-2.5c4.8-2.2,9.6-4,15.5-2.5
	c-6.8,10.2-13.3,19.9-19.8,29.6c-0.9,1.3-1.8,2.7-2.3,4.1c-0.9,2.7-0.2,5.5,2.3,6.5c2,0.8,4.7,0.4,6.9-0.3c1.3-0.4,2.2-2.2,3-3.5
	c5.9-8.7,11.7-17.5,17.5-26.2c0.8-1.2,1.6-2.2,2.8-4c1,2.5,1.8,4.2,2.3,5.9c2,8.2,0.5,16-2.8,23.7c-7.6,17.8-21.8,26-40.5,23.3
	c-1.2-0.2-2.5-1-3.4-1.8c-5.8-5.5-7.2-12.5-5.7-19.8c1.2-6.2,3.9-12,6.1-18c1.2-3.3,0.8-6.1-2.3-8c-2.8-1.7-6.4-0.8-8.2,2.4
	c-4.6,7.8-7.9,16.1-7.8,25.2c0.1,6.6,1.5,13.2,2.4,20.1c-3.5,0-7.8-0.1-12.2,0c-5.1,0.2-7.2,2.3-7.3,7.4c0,3.9,0,7.7,0,11.6
	c0.1,4.9,1.6,6.8,6.3,7.7c18.5,3.5,37,7,55.6,10.5c10.3,2,20.5,3.9,31,6c0,5.1,0.2,9.9-0.1,14.7c-0.2,3.7,0.9,6.8,3.9,9h179.7
	c3.1-2,4.2-4.8,4-8.5c-0.2-5-0.1-10-0.1-15.1c7.8-1.5,15.3-3,22.7-4.4c21.4-4,42.8-8.1,64.2-12.1c3.9-0.8,6.1-3,6-7.1
	c0-3.5,0-6.9,0-10.4c0-7.4-1.8-9.2-9.2-9.2c-17.2,0-34.3,0-51.5,0c-1.6,0-3.2,0.1-4.7,0.5c-2.8,0.7-4.2,2.6-4.3,5.5s1.3,4.9,4,5.7
	c1.6,0.5,3.4,0.6,5.1,0.6c14.6,0,29.3,0,43.9,0h4.3c0.8,4.9-3.1,3.7-4.9,4.1c-19.1,3.8-38.3,7.5-57.5,11c-9.3,1.7-18.6,4.3-27.9,4.4
	c-56,0.4-112.1,0.2-168.1,0.2c-2.4,0-4.8-0.2-7.1-0.6c-10.5-1.9-20.9-3.9-31.3-5.9c-16.4-3.1-32.8-6.3-49.3-9.4
	c-2.3-0.4-3.4-1-2.2-3.6h5.2c88.4,0,176.8,0,265.2,0c2,0,4-0.1,5.9-0.6c2.9-0.7,4.9-3.1,4.1-5.9c-0.6-2-2.6-3.9-4.5-5.3
	c-1.1-0.8-3.1-0.5-4.7-0.5c-10,0-20,0-29.9,0c-1.2,0-2.4-0.1-4.7-0.3C891.6,519.7,904.5,505.9,913.6,488.8z M926.8,446
	c0.5-11.5,0.5-23.1,0.7-34.6c0.1-6.1,0.7-6.9,6.8-7.8c1.6-0.2,3.2-0.2,4.4-0.3c10.2,0.1,19.2,6.1,22.9,15c3.7,9.1,1.6,20-5.3,26.9
	c-6.8,6.8-17.6,9-26.5,5.5C927.2,449.7,926.7,448.6,926.8,446z M924.3,461.7c11.9,4.2,23.5,3.8,34.2-3.1c10.7-7,16.5-17.2,16.8-30
	c0.3-12.3-4.7-22.5-14.5-30c-9.8-7.5-20.9-9-33.1-6.1v-14.9c20.9-5.1,43.5,4.5,54.8,23.2c11.7,19.2,9.9,43.5-4.5,60.2
	c-14.6,17-38.3,23-58,14.6C921.4,471,922.8,466.5,924.3,461.7z M730.5,576h162.8v10H730.5V576z M748.8,531.5c-13.7,0-27.4,0-41.1,0
	H703c2.2-2.9,4-5.1,5.7-7.3c5.6-7.7,9.3-16.3,10.8-25.8c0.2-1.1,0.9-2.8,1.8-3c12.8-3.7,25.1-3.5,36.4,4.7c0.6,0.5,1.2,1,1.8,1.6
	c0.5,0.6,1,1.2,2,2.5c-9.7,1.9-18.8,3.8-27.8,5.6c-3.2,0.7-6.5,1.2-9.8,2c-4.1,1-6,3.9-5.2,7.6c0.7,3.3,3.8,5,7.8,4.2
	c12.2-2.4,24.4-4.8,36.6-7.2C763.3,523.1,755.3,531.5,748.8,531.5z M864.4,523.1c-2.4,1.5-4.8,2.8-7.3,4c-6,3-12.2,4.6-19.1,4.5
	c-19-0.4-38.1-0.1-57.1-0.2c-3.1,0-6.2-0.9-9.8-1.5c5.9-10.5,7.4-20.3,2-30.2c-6-10.9-16.1-16.1-27.9-17.7c-7.1-1-14.5-0.2-21.8,0.2
	c-2.2,0.1-3.2,0-4.2-2.1c-7.1-14.2-10.6-29.2-10.8-44.9c-0.2-16.2-0.1-32.5-0.1-48.7c0-0.6,0.1-1.3,0.2-2.2H915
	c0.1,0.6,0.3,1.1,0.3,1.6c0,18.1,0.9,36.3-0.3,54.3C912.7,476.3,895.3,503.9,864.4,523.1z"/>
<path class="st0" d="M840.7,254.8c5.9,6.1,9.9,13.2,11.6,21.5c3.4,16.1-3.7,33.4-17.5,42.4c-3.3,2.2-6.8,1.8-8.9-0.9
	c-2.1-2.8-1.4-6.6,2-9c8.1-5.7,12.7-13.4,13-23.4c0.3-10.2-3.9-18.3-12-24.3c-5.6-4.2-5.6-8.2-0.1-12.3c16.1-12,16.3-34.8,0.4-46.8
	c-0.6-0.5-1.3-0.9-1.9-1.5c-2.8-2.5-3.4-5.9-1.4-8.5c2-2.7,5.4-3.3,8.5-1.2c9.1,6.1,15.3,14.4,17.6,25.2c3,14-0.2,26.6-10,37.3
	C841.6,253.6,841.2,254.1,840.7,254.8z"/>
<path class="st0" d="M895.3,284.3c-0.4,14.4-6.3,25.7-17.9,33.9c-3.6,2.6-7.4,2.3-9.4-0.7c-2.1-3-1.2-6.4,2.5-9.2
	c17.1-13,17.1-34.7,0-47.9c-3.7-2.8-4.6-6.2-2.4-9.2c2.2-3,5.7-3.3,9.5-0.6C889.1,258.9,894.9,270.3,895.3,284.3z"/>
<path class="st0" d="M807.4,287.8c-0.3,11-6.2,22.3-17.9,30.6c-3.5,2.5-7.1,2.2-9.2-0.6c-2.2-2.9-1.3-6.6,2.2-9.3
	c17.2-13.3,17.3-34.9,0.2-48c-3.7-2.8-4.6-6.3-2.5-9.2c2.3-3.2,5.7-3.3,9.8-0.5C801.1,258.6,807.5,270.9,807.4,287.8z"/>
<g>
	<path class="st0" d="M-503.3-10.5c-6.5-20.7-22.1-30.5-42.2-34.4c-7-1.4-14.3-1.5-21.9-2.2c0-2.3,0-4.9,0-7.5c-0.1-7.5-1.7-9-9.1-9
		h-69.8c-0.5-7.3-1.8-9.6-5.3-9.8c-1.3-0.1-3.3,0.2-3.8,1c-1.5,2.5-2.3,5.4-3.7,8.7h-109.2c-1.1,0-2.3-0.1-3.4,0
		c-3.6,0.3-5.8,2.5-5.8,5.6c-0.1,3.2,2,5.4,5.6,5.9c1.2,0.1,2.5,0.1,3.7,0.1h110c0.1,1,0.3,1.6,0.3,2.2c0,16.1,0.1,32.2-0.1,48.3
		c0,1.4-1,3-2.1,4c-5.5,5.1-11.1,10.1-16.8,14.9c-4.5,3.8-6.8,8.5-6.8,14.3c0,11.9-0.2,23.7,0,35.5c0.2,10.6,7.1,17.4,17.7,17.6
		c9.1,0.2,18.2,0.2,27.3,0c10.6-0.2,17.4-7.2,17.5-17.8c0.1-11.7,0-23.5,0-35.2c0-5.8-2.1-10.4-6.4-14.1c-5.6-4.9-11.3-9.8-16.7-15
		c-1.3-1.3-2.4-3.5-2.4-5.3c-0.2-15.2-0.1-30.4-0.1-45.7v-3.5h67.3c0.1,0.6,0.2,1,0.2,1.4c0,1.1,0,2.2,0,3.4
		c-0.6,30.7-5.5,60.7-14.5,90.1c-10.6,34.7-26.6,66.5-50.1,94.4c-1.5,1.8-3,2.5-5.4,2.5c-27.1-0.1-54.1,0-81.2-0.1
		c-1,0-2.1-0.1-3.5-0.2c0.7-0.6,0.9-0.9,1.2-1.1c28.1-16.2,37.7-42.7,40.2-73c0.4-4.7-2.1-7-6.9-6.6c-5.7,0.5-11.4,1.1-17,2.3
		c-29.7,6.6-51.3,22.8-61.4,52.4c-0.2,0.5-0.6,0.9-1.1,1.6c-6.6-15.8-17.5-26.8-32.9-33.5c-1.2-0.5-2.1-2-2.7-3.3
		c-17.9-40.5-26.8-83-27.7-127.2c0-1.1,0.1-2.1,0.2-3.4c15.1,0,29.8,0,44.5,0c1.6,0,3.6,0.2,4.7-0.6c1.6-1.2,3.5-3.3,3.5-5
		c0-1.7-1.8-3.8-3.3-5.2c-0.9-0.8-2.8-0.7-4.3-0.7c-16.3,0-32.7,0-49,0c-5.7,0-7.8,1.7-7.8,7.5c0.1,9.5,0.3,19,1,28.4
		c2,27.8,7.4,55,16.3,81.4c2.5,7.6,5.4,15.1,8.2,22.8c-4.4-0.6-8.4-1.2-12.5-1.6c-4.8-0.5-7.7,2.4-7.3,7.1c0.3,3.5,0.7,7,1.3,10.4
		c3.4,18.8,11.1,35.1,27.6,46.1c0.3,0.2,0.5,0.6,1.1,1.3h-4.6c-18.2,0-36.4,0-54.6,0c-6.1,0-8.7,4.5-5.6,9.5
		c12.7,20,30.7,33,54.2,35c22,1.9,44.3,0.9,66.5,1c3.3,0,5.8-2.7,5.6-5.8c-0.1-3-2.4-5.2-5.6-5.4c-1-0.1-2,0-3,0
		c-17.2,0-34.4,0-51.6,0c-10,0-19.6-1.8-28.7-6c-8.3-3.9-15.6-9.1-22.1-16.9h218.5c14.7,0,29.4,0,44.2,0c5.9,0,8.8-1.9,8.7-5.8
		c-0.1-3.8-2.9-5.6-8.6-5.6c-7.7,0-15.5,0-23.2,0c-0.9,0-1.8-0.2-2.8-0.3c3.8-5.3,7.3-10.3,11-15.2c0.7-0.9,2.1-1.7,3.3-1.9
		c17.6-3.2,34.6-8.5,50.2-17.3c27.6-15.4,48.5-37,59.6-67c2.6-7,3.8-14.6,5.6-22V0.6C-501.4-3.1-502.1-6.9-503.3-10.5z M-646.4,15.9
		c4.8,4.3,9.1,8,13.1,11.9c0.9,0.9,1.2,2.8,1.2,4.2c0.1,11.6,0.1,23.2,0,34.8c0,4.6-2,6.5-6.6,6.6c-8.9,0-17.7,0-26.6,0
		c-4.7,0-6.6-1.9-6.6-6.6c0-11.6-0.1-23.2,0-34.8c0-1.6,0.5-3.7,1.6-4.7c3.8-3.8,7.9-7.2,12.7-11.5c0,3.9-0.1,6.6,0,9.3
		c0.1,3.5,2.4,5.7,5.6,5.7c3.1,0,5.5-2.4,5.6-5.8C-646.3,22.3-646.4,19.6-646.4,15.9z M-815.5,126.8c-12.5-9.9-17.4-23.7-19.9-39.1
		c24.7-1.5,48.2,22.1,51.3,51.5C-795.7,137.6-806.4,134-815.5,126.8z M-704,71.3c-2.6,18.7-8.1,36-22.4,49.2
		c-12.6,11.5-28,16.4-44.6,18.8C-772.3,105.5-736.6,69.4-704,71.3z M-570.7-7.3c8.7-2,17-1.2,25.3,2c4.1,1.6,6.2,4.6,6.9,8.9
		c1.3,8.2-0.3,15.9-3.4,23.3c-9.7,23.3-27.4,38.6-50,48.8c-0.2,0.1-0.4,0-1.1,0C-582,49-574.7,21.3-570.7-7.3z M-516.6,34.3
		c-10.8,28.9-31.1,49.3-58.3,62.8c-9.9,4.9-20.9,7.9-31.4,11.7c-0.9,0.3-1.9,0.3-3.3,0.5c3.2-6.1,6.1-11.9,9.3-17.4
		c0.7-1.1,2.7-1.7,4.1-2.2c22.8-8.2,41.8-21.5,55.7-41.5c7.8-11.3,13.2-23.7,13.7-37.8c0.5-17.5-6.9-26.5-24.2-29.1
		c-5.9-0.9-11.9-0.8-18.1-1.2c0.4-4.8,0.8-9.7,1.3-14.5c23-5.5,49,8.8,54.4,29.8C-510,8.7-511.9,21.7-516.6,34.3z"/>
	<path class="st0" d="M-537.3,151.3c-2.3,0-3.7,0-5,0c-11.7,0-23.4,0-35.2,0c-4.6,0-6.9-1.9-6.9-5.5c0-3.7,2.4-5.8,7.1-5.8
		c16.5,0,32.9,0,49.4,0c2.8,0,5.7,0.4,6.4,3.3c0.5,2.1,0.1,5.1-1,6.8c-14.8,22.7-35.9,35.1-63,35.3c-50.6,0.4-101.2,0.1-151.9,0.1
		c-1,0-2,0.1-3-0.1c-2.8-0.8-4.5-2.8-4.3-5.7c0.1-2.9,1.8-4.9,4.8-5.3c1.4-0.2,2.7-0.1,4.1-0.1c49.1,0,98.3,0,147.4,0
		c18.6,0,34.6-6.2,47.8-19.4C-539.7,154-538.9,153.1-537.3,151.3z"/>
</g>
<g>
	<path class="st1" d="M1124.4-211.7c1,0.2,1.6,0.3,2.2,0.5c17.3,5.4,33.8,3.1,48.4-7.5c22.2-16.1,30.5-38.6,27.4-65.5
		c-4-34.8-36.9-65.8-77.2-53.2v-23.8c0-7.7-1.4-9-9.2-9c-3.1,0-6.2,0.1-9.3-0.1c-1.1-0.1-2.5-0.5-3.2-1.3
		c-9-11.1-20.8-18.2-33.9-23.2c-38.4-14.4-77.4-15-116.7-4.1c-14.4,4-28.4,9.7-38.9,20.6c-6.3,6.6-12.5,9-21,8.1
		c-5.4-0.6-7.4,1.9-7.4,7.3c0,12.1,0,24.2,0,36.3v4.2h-27.8c-6.5,0-8.1,1.7-8.1,8.2v135.2c-0.6,0.2-0.7,0.3-0.9,0.3
		c-3.5,0-7,0-10.5,0.1c-5.4,0.1-7.9,3.8-6,8.9c1.8,4.9,3.7,9.8,5.8,14.5c5.4,12,14.6,18.5,27.8,18.5c93,0.1,185.9,0.1,278.9,0
		c13,0,22.2-6.4,27.6-18.2c2-4.4,3.7-9,5.5-13.5c2.6-6.6,0.3-10.1-6.8-10.1h-65.8C1115.9-188,1121.6-199,1124.4-211.7z
		 M1125.3-290.3c0.1-2,0.9-4.4,2.2-6c7.6-9.2,19.4-10.4,28.4-2.9c15.2,12.5,14.5,38.7-1.2,50.5c-11.1,8.5-23.5,2.1-28.7-5.6
		c-0.7-1-0.8-2.6-0.9-3.9c-0.1-5.5,0-11,0-16.5C1125.2-279.8,1125-285.1,1125.3-290.3z M1125.2-227.9c0.2-3.2,0.1-6.5,0.1-9.8
		c3.7,1.5,7.1,3.4,10.8,4.3c14.2,3.3,25.1-2.5,33.7-13.3c14.3-18.1,12-45.6-4.9-60.7c-11.5-10.2-24.3-11.6-37.9-4.1
		c-0.4,0.2-0.8,0.4-1.7,0.8c0-4.2-0.2-8.1,0.1-11.9c0.1-1,1.6-2.3,2.8-2.7c13.1-5,25.7-3.7,37.6,3.5c33.4,20.2,33.7,74,0.5,94.5
		c-12,7.4-24.6,8.8-38,4C1125.9-224.2,1125-225.3,1125.2-227.9z M1087.6-370.5c-1.2,0.1-2.1,0.3-3,0.3c-6,0-12,0-18,0
		c-5.2,0-7.3,2-7.3,7.2c0,13.4,0,26.7,0,40c0,5.2-2.2,9.1-7,11.4c-4.4,2.1-8.5,1.4-12.3-1.4c-3.4-2.6-4.7-6.3-4.7-10.5
		c0-13,0-26,0-38.9c0-6-1.8-7.8-7.8-7.8c-33.3,0-66.6,0-99.9,0h-4.9C960.4-401.9,1050.9-401.8,1087.6-370.5z M862-310.2h59.5v59.5
		H862V-310.2z M861.9-238.2h59.5v59.5h-59.5V-238.2z M1163.8-166.4c-2.7,12.3-9.5,17.9-21.7,17.9c-91.1,0-182.2,0-273.3,0
		c-12.2,0-19-5.5-21.7-17.9H1163.8z M993.3-238.3v59.5h-59.5v-59.5H993.3z M933.8-250.7v-59.5h59.5v59.5H933.8z M1084.7-179.6
		c-1.5,0.6-3.1,1.1-4.7,1.1c-24.2,0.1-48.4,0.1-72.6,0c-0.5,0-1-0.1-2-0.2v-135.4c0-6.5-1.7-8.2-8.1-8.2h-99.5V-358h125.7
		c0,11.6,0,23,0,34.5c0,2.2,0.1,4.5,0.6,6.7c2.9,12.2,13.8,19.8,26.2,18.5c11.8-1.2,21-11.6,21-23.8c0.1-11.6,0-23.2,0.1-34.8
		c0-0.2,0.1-0.5,0.3-0.9h41.5c0.1,1.2,0.1,2.2,0.1,3.3c0,43.7,0,87.4,0,131C1113.2-203.8,1102.3-186.9,1084.7-179.6z"/>
	<path class="st1" d="M909.6-292.1c-0.1-4-2.3-6.2-6.3-6.2c-7.7-0.1-15.5-0.1-23.2,0c-4,0-6.3,2.2-6.3,6.2c-0.1,7.7-0.1,15.5,0,23.2
		c0,4.2,2.2,6.4,6.5,6.4c7.6,0.1,15.2,0.1,22.8,0c4.3,0,6.4-2.2,6.5-6.4c0.1-3.7,0-7.5,0-11.2C909.6-284.1,909.7-288.1,909.6-292.1z
		 M897.3-274.4h-11.4v-11.7h11.4V-274.4z"/>
	<path class="st1" d="M974.9-298.3c-3.7-0.1-7.5,0-11.2,0c-3.9,0-7.7-0.1-11.6,0c-4.3,0.1-6.4,2.2-6.5,6.5c-0.1,7.6-0.1,15.2,0,22.8
		c0,4.3,2.2,6.5,6.4,6.6c7.7,0.1,15.5,0.1,23.2,0c4,0,6.2-2.3,6.3-6.3c0.1-7.7,0.1-15.5,0-23.2C981.4-296.1,979.2-298.3,974.9-298.3
		z M969.2-274.4h-11.4v-11.7h11.4V-274.4z"/>
	<path class="st1" d="M909.6-219.9c-0.1-4.3-2.2-6.4-6.5-6.5c-7.6-0.1-15.2,0-22.8,0c-4.3,0-6.5,2.2-6.6,6.4
		c-0.1,7.7-0.1,15.5,0,23.2c0,4,2.2,6.3,6.3,6.3c7.7,0.1,15.5,0.1,23.2,0c4.2,0,6.3-2.3,6.4-6.5c0-1.6,0-3.2,0-4.8
		c0-2.1,0-4.3,0-6.4v-3.7C909.6-214.6,909.6-217.3,909.6-219.9z M897.4-202.7h-11.5v-11.6h11.5V-202.7z"/>
	<path class="st1" d="M951.6-190.6c7.9,0.1,15.7,0.1,23.6,0c4,0,6.2-2.3,6.2-6.3c0.1-3.8,0-7.5,0-11.2c0-4.1,0.1-8.2,0-12.3
		c-0.1-3.6-2.3-5.9-5.9-5.9c-8-0.1-16-0.1-24,0c-3.8,0-6,2.3-6,6.1c-0.1,7.9-0.1,15.7,0,23.6C945.6-192.9,947.9-190.6,951.6-190.6z
		 M957.8-214.3h11.6v11.5h-11.6V-214.3z"/>
</g>
<g>
	<path class="st0" d="M-535.2,262.3c-15.8-8.4-31.7-16.7-47.6-25c-6.1-3.2-8.9-2.3-12,3.8c-9.8,19.5-19.5,39-29.2,58.5
		c-1.2,2.5-2.6,3.3-5.4,3.3c-37.9-0.1-75.8-0.1-113.8-0.1c-9.1,0-18.2-0.1-27.3,0c-2.1,0-3.5-0.5-4.3-2.6c-0.8-2-1.9-4-3-6
		c11.8-6.9,22-15.2,30.6-25.4c9.6-11.2,16.8-23.8,21.7-37.7c2-5.6-1.3-10.2-6.9-9.7c-5,0.4-9.9,0.9-14.9,1.4
		c-22.3,2.2-44.7,4.3-67,6.7c-2.3,0.2-5,1.3-6.5,3c-18.3,19.9-36.5,40-54.6,60.1c-4.2,4.6-2.8,9.7,3.1,11.7
		c18.2,5.9,36.8,7.6,55.7,3.9c9.1-1.8,18-4.6,27.2-7.1c1.2,1.4,1.8,2.8-0.2,5.2c-30.4,36-40.7,77.2-28,122.5
		c14.2,50.6,48.3,82.1,99.4,94.8c7.1,1.8,14.4,2.4,22.1,3.7c0,9.8,0.1,19.9-0.1,30c0,0.8-1.9,2-3,2.2c-18,2.2-32.1,10.9-42.1,26
		c-3.7,5.6-3.2,8.3,2.1,12.2h99.6c5.2-3.8,5.8-6.6,2.3-11.9c-10-15.3-24.1-24.2-42.3-26.2c-2.4-0.3-3.2-1-3.2-3.4
		c0.1-9,0-18,0.1-26.9c0-0.8,0.3-1.6,0.2-1.4c11.2-2.3,22-3.7,32.3-6.9c59.6-18.2,100.4-76.8,93-142c-3.1-27.4-13.9-51.5-31.8-72.4
		c-2.1-2.5-4.6-3.6-7.8-3.5c-4.4,0.1-8.9,0-13.9,0c8.8-17.6,17.3-34.6,25.9-51.7c3.6,1.9,6.8,3.5,10,5.2
		c11.2,5.9,22.5,11.9,33.7,17.7c4.8,2.5,9.3,0.9,10.6-3.7C-529.8,267.2-531.3,264.3-535.2,262.3z M-858.7,294.1
		c12.8-14.2,25.2-27.8,37.8-41.7c0.4,0.7,0.7,1,0.7,1.3c1.2,13.5,2.5,27,3.7,40.8C-830.5,297.6-844.2,297.2-858.7,294.1z
		 M-766,316.3h133.2c-0.4,1-0.6,1.9-1,2.7c-4.7,9.4-9.4,18.7-14,28.1c-1,2-2.1,2.6-4.3,2.6c-31.5-0.1-63.1,0-94.6-0.1
		c-1.3,0-3.3-0.8-3.9-1.8c-5.3-10-10.3-20.2-15.3-30.3C-766,317.3-765.9,316.9-766,316.3z M-679.7,460.4c2.9,1.8,5.8,1.3,8.1-1.2
		c0.9-1,1.5-2.3,2.1-3.5c14.7-29.4,29.5-58.7,44-88.2c1.8-3.6,3.8-4.8,7.7-4.6c6.2,0.3,12.5,0.2,18.7,0c2.8-0.1,3.8,1,4.5,3.5
		c14.2,49-11.8,101.2-59.8,119.6c-57.7,22.1-121.2-14.2-132.1-75.3c-2.6-14.8-1.8-29.5,2.2-44c0.8-2.7,1.9-3.5,4.7-3.8
		c6.7-0.9,10,1.8,12.9,7.9c8.5,18.1,17.8,35.9,26.8,53.8c0.6,1.2,1.2,2.5,2,3.6c2,2.4,4.6,3.4,7.7,2c3.2-1.4,4.5-3.9,3.8-7.2
		c-0.3-1.4-1-2.8-1.6-4.1c-8.6-17.1-17.2-34.2-25.8-51.4c-0.6-1.2-1.2-2.4-1.9-4h117.6c-0.7,1.5-1.2,2.8-1.8,4
		c-13.7,27.4-27.4,54.8-41.1,82.1c-0.5,1.1-1.2,2.2-1.6,3.4C-683.7,456-682.6,458.7-679.7,460.4z M-788.8,240.3
		c15.5-1.5,31.1-3,46.6-4.6c0.3,0.3,0.5,0.6,0.8,0.9c-4.2,6.8-8.3,13.6-12.7,20.8c-12.1-5.7-23.4-11-34.7-16.3
		C-788.8,240.9-788.8,240.6-788.8,240.3z M-803.4,291.2c-1.4-14.9-2.7-29.1-4.1-44.1c14.7,6.9,28.9,13.5,43.5,20.4
		C-775.6,278.5-788.4,286.2-803.4,291.2z M-656.2,584h-66.2C-709.1,568.8-671.9,567.6-656.2,584z M-600.7,316.3
		c1.5,0.1,3.3,1,4.3,2.1c18.7,23.2,27.7,49.8,26.7,79.7c-1.7,50.8-35.6,95.1-84.2,110.2c-69,21.4-141.5-23.1-153.4-94.4
		c-5.9-35.3,2.6-67.2,24.8-95.3c0.3-0.4,0.7-0.7,1.5-1.6c5.5,11.1,10.9,21.7,16.5,32.8c-7.8,0-14.9,0-21.9,0c-4.7,0-6.4,1.2-8,5.7
		c-24.1,65.2,17.9,137.4,86.4,148.6c60.8,10,117.4-29.6,128.8-90.3c3.7-19.9,1.9-39.4-5-58.5c-1.4-3.8-3.7-5.6-7.8-5.5
		c-12.5,0.1-24.9,0-37.4,0h-4.6c1.6-3.2,2.8-5.9,4.2-8.5c3.7-7.5,7.5-14.9,11.2-22.4c0.9-2,2-2.8,4.2-2.7
		C-610,316.3-605.3,316-600.7,316.3z"/>
	<path class="st0" d="M-658.7,239.8c1.9,0,3.7-0.1,5.6,0c3.5,0.3,5.8,2.6,6,5.9c0.2,3.4-1.5,6.4-4.9,6.8c-4.4,0.5-8.9,0.5-13.3,0
		c-3.4-0.4-5.2-3.3-5-6.8c0.2-3.3,2.5-5.7,6-5.9C-662.5,239.7-660.6,239.8-658.7,239.8z"/>
	<path class="st0" d="M-618.2,239.8c1.9,0,3.7-0.1,5.6,0c3.4,0.3,5.5,2.2,5.9,5.6c0.4,3.4-1.3,6.6-4.7,7c-4.5,0.5-9.2,0.5-13.7,0
		c-3.4-0.3-5.1-3.4-4.9-6.9c0.3-3.3,2.6-5.6,6.1-5.8C-621.9,239.7-620,239.8-618.2,239.8C-618.2,239.8-618.2,239.8-618.2,239.8z"/>
	<path class="st0" d="M-632,226.1c0,2,0.2,4,0,6c-0.4,3.6-3.1,5.8-6.7,5.6c-3.4-0.1-5.9-2.3-6.2-5.8c-0.2-4-0.2-8,0-11.9
		c0.2-3.4,2.9-5.6,6.3-5.6c3.4,0,6.1,2.1,6.5,5.4C-631.9,221.8-632.1,224-632,226.1C-632.1,226.1-632.1,226.1-632,226.1z"/>
	<path class="st0" d="M-645,266.5c0-2-0.2-4,0-6c0.3-3.4,2.9-5.7,6.2-5.8c3.3-0.1,6.3,2,6.5,5.3c0.3,4.2,0.3,8.5,0,12.7
		c-0.2,3.3-3.2,5.5-6.5,5.4c-3.3-0.1-5.9-2.3-6.3-5.7C-645.1,270.5-645,268.5-645,266.5z"/>
	<path class="st0" d="M-792.3,511.1c0,6.7-2.3,9.7-7.1,9.4c-4.4-0.3-6.2-3.4-6.1-10.2c0.1-5.3,2.3-8.3,6.4-8.5
		C-794.7,501.6-792.3,504.7-792.3,511.1z"/>
	<path class="st0" d="M-792.3,539.4c0,0.9,0,1.7,0,2.6c-0.1,3.9-2.5,6.6-5.9,6.8c-3.7,0.3-6.7-2.1-7.2-6c-0.3-2.1-0.3-4.2,0-6.3
		c0.4-4,3.2-6.4,6.9-6.3c3.7,0.2,6.1,2.8,6.2,6.9C-792.3,537.9-792.3,538.7-792.3,539.4z"/>
	<path class="st0" d="M-813.2,518.8c6.3,0,9.7,2.3,9.5,6.8c-0.1,4.4-3.4,6.5-9.8,6.5c-6.3-0.1-9.5-2.8-8.8-7.7
		C-821.7,520.4-819.1,518.8-813.2,518.8z"/>
	<path class="st0" d="M-784.8,532c-6.3,0-9.4-2.4-9.2-7c0.2-4.5,3.1-6.3,9.9-6.2c5.5,0.1,8.6,2.3,8.8,6.4
		C-775.1,529.6-778.5,532-784.8,532z"/>
	<path class="st0" d="M-691.3,467.9c0,3.7-3,6.8-6.6,6.7c-3.5,0-6.7-3.3-6.6-6.8c0.1-3.5,3-6.4,6.5-6.4
		C-694.3,461.3-691.3,464.2-691.3,467.9z"/>
	<path class="st0" d="M-708,379.9c0,3.6-3.1,6.6-6.8,6.5c-3.7-0.1-6.6-3.1-6.4-6.8c0.1-3.5,3-6.4,6.5-6.5
		C-711.2,373.2-707.9,376.5-708,379.9z"/>
	<path class="st0" d="M-677.7,409.6c0,3.7-3.1,6.7-6.6,6.7s-6.5-3.2-6.4-6.9c0.1-3.6,2.8-6.3,6.5-6.3
		C-680.5,403-677.7,405.8-677.7,409.6z"/>
	<path class="st0" d="M-727.2,445.1c0,3.8-2.9,6.6-6.6,6.5c-3.7-0.1-6.7-3.1-6.5-6.7c0.1-3.4,3.2-6.4,6.6-6.4
		C-730.2,438.4-727.2,441.4-727.2,445.1z"/>
	<path class="st0" d="M-611.8,401.7c0.1,3.7-2.7,6.8-6.3,6.9c-3.6,0.1-6.6-2.8-6.7-6.5c0-3.7,2.5-6.4,6.1-6.6
		C-614.8,395.3-611.9,397.9-611.8,401.7z"/>
</g>
<g>
	<path class="st0" d="M-1321.6,147.9h-20.6c1.1-10.4,2.2-20.3,3.2-30.3c0.3-3,1.4-4.9,4.2-6.4c8.6-4.9,17-10.1,25.7-15.3
		c-2.3-3.8-4.4-7.3-6.7-11c-10.8,6.5-21.3,12.7-31.7,19.1c-1.6,1-3,3.2-3.3,5c-1,6.2-1.5,12.5-2.2,18.7c-0.7,6.6-1.5,13.3-2.3,20
		h-62.8c1.1-1.2,1.9-2.1,2.8-2.9c9-9,18-17.9,26.9-27c4.2-4.2,4-7.6-0.2-11.6c-8.9-8.6-18.9-15.6-30.3-20.5
		c-23.2-10-46.9-11.6-71.1-4.3c-26.2,8-46.1,24.2-59.5,48c-12.1,21.6-15.7,44.7-11.1,69c3.8,19.9,13,37.1,26.9,51.8
		c4.5,4.8,7.8,5,12.6,0.2c10-10,20-20,30-30c0.8-0.8,1.7-1.6,2.9-2.7c0.2,2,0.4,3.5,0.5,5.1c0.7,12.9,1.5,25.8,2.2,38.7
		c1.2,21.8,2.5,43.6,3.5,65.5c1.2,26.7,2.2,53.4,3.2,80.1c0.1,3.9,0.9,7.2,4.6,9.1h144.5c3.5-1.9,4.6-4.9,4.6-8.8
		c0.1-12.4,0.2-24.7,0.7-37.1c0.7-17.3,1.8-34.6,2.8-51.9c1-18.3,2.1-36.6,3.1-54.9c1-17.4,1.9-34.8,2.9-52.2
		c1-18.1,2.1-36.1,3-54.2C-1312.2,149.9-1314.3,147.9-1321.6,147.9z M-1527,238c-28-30.5-31.3-84.4,3-120
		c36.4-37.7,92.1-33.8,122.4-5.9c-2.8,2.9-5.6,5.8-8.4,8.7c-37.8-30.3-82.7-16.7-104.1,4.9c-23,23.3-33.4,67.8-4.4,103.7
		C-1521.4,232.4-1524.2,235.2-1527,238z M-1419.2,130.4c-5.7,5.7-11.2,11.3-16.8,16.8c-0.5,0.5-1.4,0.7-2.1,0.7
		c-4.8,0.1-9.7,0-14.7,0v-31.3C-1440.2,117.7-1429.2,122.5-1419.2,130.4z M-1508.9,139.6c5.7,5.7,11.3,11.2,16.8,16.8
		c0.3,0.4,0.7,0.9,0.7,1.4c0.3,5,0.6,10.1,0.9,15.4h-32.4C-1521.5,160.4-1516.9,149.5-1508.9,139.6z M-1489.7,201
		c-6.4,6.4-12.7,12.8-19.2,19.3c-8-10.2-12.7-21.2-13.9-33.8h33.1c0.3,4.3,0.6,8.7,0.8,13C-1489,200-1489.4,200.6-1489.7,201z
		 M-1481.5,147.9c-0.6,0-1.3-0.4-1.7-0.8c-5.5-5.4-10.9-10.9-16.6-16.6c10.1-8,20.9-12.6,33.5-14v31.4
		C-1471.4,147.9-1476.4,147.9-1481.5,147.9z M-1478.2,161h121.5c-0.5,5.3-1,10.4-1.6,15.5c-1.5,12.9-3,25.8-4.4,38.8
		c-0.2,2.3-1,2.8-3.1,3c-11.9,1-22.3-2.3-30.9-10.5c-8.4-7.9-18-13.4-29.6-15c-15.9-2.2-29.9,2-42,12.5c-2.3,2-4.4,4.2-7.1,6.7
		C-1476.4,194.6-1477.3,177.9-1478.2,161z M-1338.4,403.3h-127.1v-12.2h127.1V403.3z M-1337.8,377.7h-128.3
		c-0.3-3.7-0.6-7.4-0.8-11.1c-1.4-25.9-2.8-51.8-4.2-77.7c-1-17.7-1.9-35.5-3.2-53.2c-0.3-4.3,0.4-7.5,3.9-10.4
		c3.7-3.1,6.9-6.9,10.5-10.1c15.2-13.6,37.3-13.5,52.3,0.4c10.2,9.6,21.9,15.5,36.1,15.8c15,0.4,27.8-5,38.4-15.5
		c1.3-1.3,2.4-2.8,3.7-4.2c0.3,0.2,0.5,0.4,0.8,0.7C-1331.6,267.4-1334.7,322.5-1337.8,377.7z M-1326.6,178.2
		c-0.1,1.1-0.4,2.2-0.3,3.3c1.1,7.9-2.3,13.6-8.2,18.5c-4.6,3.8-8.8,8.3-13.1,12.4c-0.4-0.2-0.7-0.4-1.1-0.6
		c1.9-16.8,3.7-33.7,5.6-50.7h17.9C-1326.1,166.8-1326.3,172.5-1326.6,178.2z"/>
	<rect x="-1408.3" y="288.6" class="st0" width="12.7" height="12.5"/>
	<rect x="-1369.8" y="339.6" class="st0" width="12.4" height="12.7"/>
	<rect x="-1446.6" y="237.6" class="st0" width="12.6" height="12.4"/>
	<path class="st0" d="M-1427.4,345.9h-12.7v-12.7c3.8,0,7.4-0.1,10.9,0.1c0.6,0,1.7,1.1,1.7,1.7
		C-1427.3,338.6-1427.4,342.2-1427.4,345.9z"/>
	<rect x="-1363.4" y="256.8" class="st0" width="12.4" height="12.4"/>
</g>
<g>
	<path class="st0" d="M-76.1,196.6c-0.2-21.3-18.4-40.3-39.7-41.2c-10-0.5-20-0.2-29.9-0.3c-1.3,0-2.7-0.1-3.8-0.2
		c-0.2-0.6-0.3-0.9-0.4-1.1c0-0.8-0.1-1.5-0.1-2.2c0.5-8.4-3.2-14.5-10.3-19c-7-4.4-13.5-9.4-20.6-13.6c-5.2-3.1-7.1-7-5.7-12.7
		c9.4-2.6,12-6,12-16c0-10.7,0-21.5,0-32.2c0-9.2-4.9-14-14.2-14c-5.4,0-10.7,0-16.1,0h-9.4c7.7-33.1,15.2-65.6,22.7-98.2H-235
		c-0.2,0.6-0.4,0.9-0.4,1.2c-7.2,31.1-14.5,62.3-21.6,93.4c-0.6,2.8-1.7,3.6-4.4,3.5c-20.1-0.1-40.2,0-60.2-0.1
		c-1,0-2.1-0.2-4.1-0.3c14.7-14.6,28.7-28.5,43.1-42.9c-4-3.9-7.8-7.5-11.5-11.1c-16.4-15.8-35.8-22-58.2-18.6
		c-37.8,5.7-63.2,43.8-54.7,81c4.2,18.4,15.7,31.5,29.8,44.1c9.9-10,19.9-20,29.9-30.1c0.2,0.4,0.4,0.6,0.4,0.8c0,7.7,0,15.5,0,23.2
		c0,10.2,2.3,13.3,11.9,16.1c0.9,7.7,0.6,8.4-5.8,12.6c-6.8,4.6-13.6,9.3-20.6,13.7c-7.2,4.5-10.4,10.8-10.3,19.3
		c0.3,19.2,0.1,38.4,0.1,57.6v5c-21.4-20.4-46.6-24.5-73.7-22c-1.9,23.9,0.5,46.8,16.2,66.7c-12.7,5.6-22.5,14-30.1,25v1.5
		c1.2,1.4,2.5,2.7,3.6,4.1c18.5,21.8,41.7,29.9,69.5,23.3c6.7-1.6,12.9-5,19.6-7.6c0.7,1,1.3,2,2,3c8.4,12,19.8,19,34.6,19.1
		c45.9,0.2,91.8,0.2,137.7,0c19.9-0.1,36.7-13.8,41-33c0.8-3.3,2.1-3.7,4.9-3.8c11.3-0.1,22.8,0.4,34-0.8
		c20-2.1,36.1-20.9,36.2-40.9C-76,231.5-76,214-76.1,196.6z M-396.5,212c9.9,5.1,17.5,11.8,23.6,20.2c0.6,0.8,1,2,1,3.1
		c0.1,7,0.1,14,0.1,21.4c-0.8-0.5-1.3-0.7-1.7-1.1c-7.2-7.1-14.3-14.2-21.4-21.5c-0.8-0.8-1.5-2.1-1.5-3.2
		C-396.5,224.8-396.5,218.7-396.5,212z M-371.9,278.1c-7.1,0-14.2,0-21.2,0c-0.6,0-1.4-0.5-1.9-1c-3.5-3.4-6.9-6.8-10.8-10.6
		C-393.4,265-373.2,271.9-371.9,278.1z M-403.8,242.8c3.6,3.6,7.2,7.1,10.7,10.6c-7.5,0.5-14.7,1.1-21.8,1.4c-1,0-2.4-0.8-3-1.6
		c-2.7-3.5-5.2-7.2-8.3-11.7c7.6,0,14.2,0,20.8,0.1C-405,241.5-404.4,242.3-403.8,242.8z M-410.7,206.7c0.7,0.1,1.6,1.2,1.6,1.9
		c0.2,3.4,0.1,6.8,0.1,10.3c-4.8-4.9-9.5-9.6-14.4-14.6C-419.1,205.1-414.8,205.8-410.7,206.7z M-431.1,227.1
		c-0.9-4.2-1.6-8.4-2.3-12.5c4.8,4.8,9.5,9.5,14.3,14.2c-3,0-6.3,0.1-9.7-0.1C-429.7,228.7-431,227.8-431.1,227.1z M-421.6,269.5
		c0.5-0.2,1.6,0.3,2.1,0.8c2.5,2.2,4.9,4.6,7.3,6.9c-0.2,0.3-0.3,0.5-0.4,0.8h-23.9C-431.9,273.8-426.9,271.4-421.6,269.5z
		 M-419.8,298.9c-0.5,0.4-1.7,0.6-2.2,0.4c-4.8-2.3-9.6-4.8-14.3-7.3c0.2-0.4,0.4-0.7,0.6-1h24.2
		C-414.7,294-417.2,296.5-419.8,298.9z M-406,302.8c4.4-4.4,8.2-8.1,12.1-11.8c0.3-0.3,1.2-0.2,1.8-0.2c6.3,0,12.7,0,19,0
		c0.6,0,1.1,0.2,1.7,0.3c0.1,0.4,0.2,0.8,0.3,1.2C-381.1,299.6-392.3,303.1-406,302.8z M-240,21.5c4.7-20.1,9.4-40.2,14-60.3
		c0.5-2.4,1.3-3.4,3.9-3.3c4.7,0.2,9.4,0,14.5,0c-0.1,1.2-0.1,2.2-0.3,3.1c-6.2,26.8-12.4,53.5-18.7,80.2c-0.2,1-1.5,2.5-2.3,2.6
		c-5.2,0.2-10.4,0.1-16.1,0.1C-243.3,36.2-241.7,28.9-240,21.5z M-187.2,56.7V93h-147.4V81.4h73.4V68.7h-73.4V56.7H-187.2z
		 M-247.4,228.6c1-11.2,13.2-22.1,23.1-23.1v23.1H-247.4z M-224.4,241.5v23.1c-11.1-0.4-23-14.2-23-23.1H-224.4z M-230.3,276.4
		c15.9,4.8,30.2,0.9,43.2-10.8c0,7,0.2,13-0.1,19.1c-0.2,3.9-2.8,5.8-7.3,5.9c-5.1,0.1-10.2,0-15.3,0h-61.9
		c3.6-15.7,7.2-31.1,11.1-47.7C-255.9,260.1-246.4,271.6-230.3,276.4z M-188.2,228.7h-23.2c-0.1-0.6-0.2-1.1-0.2-1.6
		c0-7.1,0-14.2,0-21.3C-202,205.2-189.4,217.6-188.2,228.7z M-198.8,196.1c2.6-5.2,7.1-4,11.6-3.9v12
		C-191,201.5-194.7,198.9-198.8,196.1z M-188,241.5c-1.6,11.4-12.2,21.9-23.4,23.4v-23.4H-188z M-187.3,179.6
		c-10.4-0.9-19.2,2-23.4,12.8c-16.9-2.1-30.6,3.5-42,17.1c3.4-14.6,6.6-28.3,9.8-42.2h45.7C-188.2,167.4-186.2,169.7-187.3,179.6z
		 M-284.3,290.4h-18c14.3-61.6,28.5-123,42.8-184.4h18C-255.8,167.6-270.1,228.9-284.3,290.4z M-310.6,254c-2-1.1-4.3-1.8-6-3.4
		c-5.3-4.9-10.3-10.1-15.3-15.3c-3.8-3.9-3.8-8.7-0.1-12.6c5.1-5.3,10.3-10.5,15.6-15.6c3.6-3.5,8.4-3.5,12.2-0.3
		c2,1.7,3.9,3.5,5.5,5.5c0.8,1,1,2.8,0.8,4c-2.5,11.2-5.3,22.2-7.7,33.4C-306.3,252.7-307.9,253.4-310.6,254z M-309.5,266
		c-1.9,8.3-3.8,16.3-5.6,24.4c-4.9,0-9.7,0.2-14.5-0.1c-3.1-0.2-5-2.4-5.1-5.5c-0.1-11.2,0-22.3,0-34.4
		C-326.9,257.6-321.3,266.6-309.5,266z M-318.3,192.5c-5.5,4.9-10.7,9.5-16.2,14.4c-0.1-0.8-0.4-1.6-0.4-2.3c0-9.7,0-19.4,0-29.1
		c0-6,2.1-8.1,8.1-8.1c2.4,0,4.9,0,7.9,0C-324,176.5-323.8,185-318.3,192.5z M-307.7,173.8c5.3-5.5,10.6-10.9,16.2-16.1
		c1.7-1.6,4.4-2.1,6.7-3.1c0.3,0.3,0.6,0.7,1,1c-3.3,14.3-6.6,28.7-10.1,43.6c-5-5-9.6-9.3-14-13.9
		C-311.1,181.9-311,177.2-307.7,173.8z M-330.4,29.9c-0.9-6.9-1.7-13.6-2.6-21c6.3,1.6,10.9,5,14.4,9
		C-322.6,22-326.4,25.9-330.4,29.9z M-360.9,60.6c-4.2-3.6-7.6-8.3-9.3-14.5c7.2,0.9,14.1,1.8,21.1,2.7
		C-353.1,52.8-356.9,56.5-360.9,60.6z M-370.7,33.4c-0.5-10.4,11-24.3,25.1-25.5c1.2,9.7,2.4,19.2,3.6,29.1
		C-351.9,35.7-361.3,34.6-370.7,33.4z M-373.2,8.8c-13.9,15.6-16.4,42.1,3.2,60.6c-2.8,2.8-5.5,5.5-8.5,8.6
		c-14.2-13.5-20.7-30.4-16.9-50.2c4.1-21.8,17.3-36.6,38.7-42.8c21.5-6.2,40.3-0.2,56.2,16c-3,3-5.7,5.7-8.4,8.4
		C-330.8-13.2-360-6-373.2,8.8z M-162.4,282.9c0,19.2-13.1,32.2-32.2,32.3c-44.3,0.1-88.6,0.1-132.8,0c-18.9,0-31.9-12.8-32-31.6
		c-0.2-44.1,0-88.3-0.1-132.5c0-3.6,1.3-6,4.4-8c7.4-4.7,14.4-9.8,21.8-14.4c7.5-4.6,11.3-11,10.8-19.9c0-0.8,0.1-1.7,0.1-2.8h49.9
		c-2.9,12.4-5.7,24.6-8.5,36.7c-3.6,0.3-6.9,0.2-10.2,0.8c-5.4,1-9.3,4.7-12.8,8.6c-1.8,2-3.7,2.9-6.5,2.8c-5.6-0.2-11.2-0.1-16.8,0
		c-12.6,0.2-20,7.5-20,20.1c0,35.9,0,71.8,0,107.8c0,12.6,7.3,20.1,19.9,20.1c44.2,0.1,88.3,0.1,132.5,0c12.8,0,20.1-7.5,20.1-20.3
		c0-35.8,0-71.6,0-107.4c0-12.8-7.4-20.1-20.3-20.2c-13.6-0.1-27.2,0-40.8,0h-4.4c3.9-16.7,7.6-32.8,11.4-49h29.3c0,2.4-0.2,4.8,0,7
		c0.7,6.2,3.7,11,8.9,14.4c7.9,5.2,15.7,10.6,23.7,15.7c3.2,2.1,4.4,4.7,4.4,8.4C-162.4,195.3-162.3,239.1-162.4,282.9z
		 M-149.8,192.4c0.8-0.1,1.6-0.4,2.5-0.4c8.9,0,17.7-0.1,26.6,0c5.4,0,7.6,2.1,7.6,7.5c0.1,15.6,0.1,31.2,0,46.8
		c0,5.2-2.1,7.2-7.3,7.2c-9.7,0-19.4,0-29.3,0V192.4z M-88.8,249.5c-0.3,15.4-13.7,28.3-29,28.6c-10.6,0.2-21.2,0-32,0v-12.1
		c9.6,0,19.1,0,28.5,0c2.4,0,4.8-0.2,7-0.8c7.9-2,13.4-9,13.5-17.2c0.1-16.7,0.1-33.4,0-50.1c-0.1-9.5-6.8-17.2-16.2-17.9
		c-9.2-0.6-18.4-0.3-27.7-0.4c-1.6,0-3.2,0-5.1,0v-11.7c0.3-0.2,0.5-0.4,0.7-0.4c11.5,0.1,23-0.4,34.4,0.6
		c14.1,1.2,25.6,13.9,25.9,27.9C-88.4,213.8-88.4,231.7-88.8,249.5z"/>
	<path class="st0" d="M-211.8,68.7v12.2h-12.3c0-3.4-0.1-7,0.1-10.5c0-0.6,1.4-1.6,2.2-1.7C-218.6,68.6-215.4,68.7-211.8,68.7z"/>
	<path class="st0" d="M-236.4,68.7V81h-12.3c0-3.6-0.1-7.1,0.1-10.6c0-0.6,1-1.6,1.5-1.6C-243.6,68.6-240,68.7-236.4,68.7z"/>
</g>
<path class="st0" d="M806.2-45.4c-2.8,3.7-5.2,7.1-7.8,10.4c-0.9-0.3-1.6-0.6-2.3-0.9c-19.9-9.1-40.4-5.5-56.1,9.8
	c-17.9,17.5-21.5,42.6-8.4,62.7c3.3,5.2,7.9,9.5,12.2,14.1C754.1,61.6,755,76,745,87c-7.3,8-15.7,15.1-24.3,23.2
	c-3.8-4-8.3-8.8-13.5-14.2c-6.2,6.3-12.2,12.6-18.4,18.9c-2.4-3.2-4.7-6.5-7.2-9.4c-2-2.4-2.7-4.9-2.7-8c0.1-30.1,0-60.2,0.1-90.3
	c0-2.7,0.4-5.6,1.1-8.2c4.5-16.1,9.1-32.2,13.6-48.2c0.3-1,0.4-2.1,0.7-3.5h-42v-22.7h-23.6v22.9h-41.9c0.3,1.2,0.4,2,0.6,2.8
	c4.7,16.7,9.4,33.4,14.1,50.1c0.5,1.8,0.9,3.7,0.9,5.6c0.1,31,0.1,61.9,0,92.9c0,1.8-0.8,4-1.9,5.5c-4.9,6.8-10,13.4-15,20.2
	c-21.3,29.2-27,61.2-16.1,95.8c4.7,14.7,9.9,29.2,14.9,43.8c3.1,9.1,6.2,18.2,9.4,27.8h-18.1v22.5h130v-22.8h-17.8
	c0.4-1.3,0.6-2.1,0.9-3c5.5-16.2,10.9-32.4,16.6-48.5c7.1-19.9,13.8-39.8,11.8-61.4c-0.1-1.3,1.1-3,2.2-4.1
	c10.1-10.2,20.2-20.3,30.3-30.5c0.9-0.9,1.8-2,3.4-3.6c-5.1-4.6-9.9-9.1-14.7-13.5c8.5-8.8,17-16.9,24.7-25.7
	c10.8-12.3,14.2-26.8,10.7-42.9c-2.2-10-7.4-18.2-14.7-25.3c-4.4-4.3-8.7-8.5-10.7-14.6c-4-12.7,1.7-26.2,14.3-33.1
	c6.9-3.8,14-4.3,21.8-1.4c-2.5,3.5-4.8,6.6-7.1,9.9c6.3,4.6,12.3,9.1,18.5,13.6c9.8-13.3,19.3-26.3,29-39.5
	C818.4-36.5,812.4-40.9,806.2-45.4z M664.2-29.5c-1.8,6.3-3.4,12.4-5.2,18.4c-0.2,0.6-1.8,1.2-2.8,1.2c-10.4,0.1-20.8,0.1-31.2,0
	c-1,0-2.6-0.8-2.8-1.6c-1.8-5.8-3.4-11.6-5.1-17.9H664.2z M655.7,13.4v80.5h-29.8V13.4H655.7z M663.5,290.8
	c-0.2,0.6-1.7,0.9-2.6,0.9c-13.4,0.1-26.9,0.1-40.3,0c-1,0-2.6-0.7-2.9-1.5c-2.1-5.5-3.9-11.2-6-17.3h58.1
	C667.6,279.1,665.7,285,663.5,290.8z M678.1,248.4c-0.3,0.7-1.7,1.5-2.6,1.5c-23.8,0.1-47.7,0.1-71.8,0.1
	c-2.4-6.9-4.7-13.6-7.1-20.8h88.1C682.4,235.8,680.4,242.1,678.1,248.4z M692.6,203.4c-0.2,0.9-1.9,2.2-3,2.3
	c-6.7,0.2-13.4,0.1-20.2,0.1h-80.3c-3.6-15.5-2.6-30.3,2.4-44.9c3.3-9.7,8.9-18.2,15.1-26.3c3.5-4.6,7.2-9.2,10.5-14
	c1.7-2.4,3.5-3.4,6.5-3.4c11.7,0.2,23.4,0,35,0.1c1.3,0,3.2,0.5,3.9,1.4c7.8,10.8,16.2,21.2,22.8,32.7
	C694.5,167.5,696.3,185.3,692.6,203.4z M710.7,150.4c-2.7-5.4-5.3-10.7-7.5-15.3c1.7-2.2,3.2-4.1,4.4-5.7c4.3,4.3,8.2,8.2,11.8,11.8
	C716.6,144.1,713.6,147.2,710.7,150.4z"/>
<g>
	<path class="st0" d="M990.4,883.9c-10-0.1-20-0.2-29.9,0.1c-3.9,0.1-5.6-1-6.2-4.8c-0.4-2.7-1.4-5.3-2.5-7.8
		c-4-8.8-6.3-18-7.4-27.6c-1.3-11.4-5.7-21.5-15.1-28.6c-9.6-7.3-18.1-15.6-25.3-25.2c-6.4-8.6-15.2-13.6-25.8-14.9
		c-11.6-1.5-22.7-4.2-33.4-9c-1.9-0.9-4-1.7-6-1.9c-3.6-0.3-4-2.2-4-5.2c0.2-8.2,0-16.5,0-24.7c0-2.7-0.6-5-3.3-6.2
		c-4.1-1.9-8.1,1-8.1,6.1c-0.1,8.7-0.1,17.5,0,26.2c0,2-0.4,3.1-2.7,3.6c-3.3,0.7-6.5,1.7-9.6,3c-9.1,4-18.5,6.5-28.4,7.5
		c-12.2,1.3-22.3,6.8-29.7,16.8c-6.3,8.6-13.8,16-22.4,22.4c-8.8,6.6-14.7,15.2-16.1,26.4c-1.6,12.2-4.4,24-9.5,35.2
		c-0.8,1.7-1.3,3.5-1.5,5.4c-0.4,2.6-1.5,3.4-4.2,3.4c-12-0.2-24-0.1-35.9-0.1c-1,0-2-0.2-3.6-0.4
		c54.6-63.3,108.7-126.1,163.5-189.7c0,4.9-0.1,8.7,0,12.5c0.1,3.7,2.5,6.2,5.6,6.3c3.1,0.1,5.6-2.4,5.7-6.1c0.1-4.7,0.2-9.5,0-14.2
		c-0.2-5.2-2.7-8.7-7.2-10.3c-4.4-1.6-8.5-0.4-12,3.6c-3.7,4.2-7.3,8.5-11,12.8c-52,60.3-103.9,120.5-155.9,180.8
		c-6,6.9-5.7,14.2,0.8,20.6c53.1,51.4,106.2,102.7,159.2,154.1c4.8,4.6,9.6,9,16.2,10.8h9c4-2.4,8.6-4.1,11.9-7.2
		c28.8-27.5,57.3-55.2,85.9-82.9c4.4-4.3,5-7.3,2.2-10.1c-2.7-2.8-6-2.1-10.2,2c-28.1,27.2-56.3,54.5-84.4,81.7
		c-7.2,7-12.8,6.9-20,0c-51.5-49.9-103.1-99.8-154.6-149.6c-0.8-0.8-1.6-1.7-3.1-3.2h4.8c37.2,0,74.4,0,111.5,0
		c4.5,0,7.3-2.3,7.2-5.8c0-3.3-2.7-5.5-7-5.7c-2.7-0.1-5.4,0-8.2,0c1.9-15.2-4.4-25.1-16.3-25.8c-5.5-0.3-10.4,1.3-14.3,5.2
		c-5.9,5.7-6.8,12.7-4.7,20.3h-20.1c0.9-2.6,1.5-4.9,2.5-7c4.4-10.2,7.3-20.9,8.5-32c0.9-8.2,4-15.5,10.8-20.6
		c10.5-7.8,19.6-16.9,27.4-27.4c4.5-6.1,10.9-9.3,18.4-10.4c5.4-0.8,10.9-1.4,16.2-2.8c7.9-2.2,15.5-5.2,23.3-7.9
		c8.1-2.7,15.6-0.7,23.1,2.8c-0.9,2-1.5,3.8-2.3,5.5c-7.2,13.8-7.1,27.6,0,41.5c4.1,8.1,4.5,16.8,0.5,24.9
		c-5.3,10.7-7.4,21.5-4.3,33.7H834c-8.5,0-17,0-25.5,0c-6,0-8.7,1.8-8.6,5.8c0,3.9,2.8,5.7,8.8,5.7c59.8,0,119.5,0,179.3,0
		c1.2,0,2.5-0.1,3.7,0.1c2.1,0.4,2.7,1.7,1.5,3.5c-0.6,0.9-1.5,1.6-2.3,2.4c-14.9,14.4-29.8,28.8-44.6,43.2c-3,3-3.4,6.4-1,8.9
		c2.5,2.5,5.5,2.5,8.6-0.4c15.7-15.1,31.5-30.2,47-45.6c2.2-2.2,3.8-5.7,4.2-8.8C1006,890.2,999.6,884,990.4,883.9z M752,869.4
		c4-0.1,7.3,3.3,7.2,7.4c0,4.1-3,7-7,7.1c-4.1,0-7.4-3.2-7.4-7.2C744.8,872.8,748.2,869.5,752,869.4z M879.2,788.4
		c0.7-0.7,2.3-1,3.2-0.6c3.2,1.4,6.3,3.2,9.2,4.7c-12.4,12.4-24.2,24.2-35.9,35.9c-1.4-3.5-3-7.6-4.7-11.9
		C860.3,807.1,869.7,797.7,879.2,788.4z M850.9,792.2c1.2-3.2,2.8-6.3,4.4-9.8c3.7,0.8,7.1,1.6,10.4,2.3
		c-5.8,5.8-11.5,11.4-17.9,17.9C849,798.6,849.7,795.3,850.9,792.2z M851.2,859c1.4-4,2.9-7.9,4.4-11.8c0.4-0.9,0.8-1.9,1.4-2.6
		c14-14,28-28.1,42.2-42.3c2.8,3.3,5.4,6.4,7.9,9.2c-19.6,19.6-39.1,39-59.5,59.4C849,866.4,850,862.6,851.2,859z M866.3,883.9
		c-4.4-0.2-8.9,0-13.8,0c21.8-21.8,42.9-42.9,64.4-64.3c2.9,2.5,6,5.1,9.3,7.9c-0.9,1-1.6,1.8-2.4,2.6
		c-17.1,17.1-34.2,34.2-51.2,51.3C870.6,883.2,868.8,884,866.3,883.9z M905.7,882.2c-0.8,0.7-1.8,1.5-2.8,1.6
		c-5.2,0.2-10.4,0.1-15,0.1c14.6-14.6,29.4-29.4,44.2-44.2c0.6,3.5,1.4,7.8,1.9,12.1c0.1,1.1-0.6,2.7-1.4,3.5
		C923.7,864.3,914.7,873.3,905.7,882.2z M922,883.7c5.1-5.1,10.6-10.6,16.1-16.2c1.8,4.9,3.9,10.3,6.1,16.2H922z"/>
	<path class="st0" d="M786.1,799.7c-9.8,0-17.5,7.7-17.6,17.5c0,9.8,7.7,17.6,17.4,17.6c9.7,0,17.7-7.9,17.7-17.5
		C803.8,807.8,795.7,799.8,786.1,799.7z M785.9,823.6c-3.3-0.1-6.1-3-6.1-6.3c0-3.4,3.1-6.4,6.5-6.3c3.4,0.2,5.9,3,5.8,6.5
		C792.1,820.9,789.3,823.7,785.9,823.6z"/>
	<path class="st0" d="M814.3,869.3c9,0,16.3-7.1,16.3-16c0-8.6-7.3-16-16-16.1c-8.9-0.1-16.2,7.2-16.2,16.1
		C798.4,862.3,805.4,869.3,814.3,869.3z M814.4,848.7c2.7,0.2,4.5,1.5,4.6,4.4c0.1,3-1.6,4.6-4.4,5c-2.5,0.3-4.7-2-4.8-4.6
		C809.7,850.8,811.8,848.5,814.4,848.7z"/>
</g>
<g>
	<path class="st0" d="M396.5,118V78.3c-2.4-5.8-5.9-10.5-12.4-12.4c-0.8-0.2-1.6-1.8-1.7-2.8c-2.6-18.9-16.8-33.2-35.8-35.8
		c-1-0.1-2.6-0.9-2.8-1.7c-1.8-6.5-6.5-10-12.3-12.4h-39.7c-5.9,2.8-10.9,6.4-12.2,13.7h-15.8c-7.9,0-15.7,0.1-23.6-0.1
		c-1.1,0-2.9-0.7-3.2-1.4c-2.1-6.3-6.6-10-12.6-12.2h-38.9c-6,2.2-10.6,5.9-12.6,12.2c-0.2,0.6-1.4,1.4-2.1,1.4
		c-13.3,0.1-26.7,0.1-40.4,0.1C129,19.8,124,16,118,13.2H78.3c-5.9,2.4-10.5,6-12.4,12.4c-0.2,0.8-2,1.6-3.2,1.8
		c-18,2.2-33.1,17.4-35.4,35.5c-0.2,1.2-1.4,2.9-2.6,3.3c-7.8,3.2-11.5,8.5-11.6,16.9c0,9.6,0,19.2,0,28.8c0,9.9,3.8,15.1,13.5,18.4
		c0.1,1,0.2,2.1,0.2,3.2c0,11.8,0,23.7,0.1,35.5c0,2.3-0.5,3.5-2.8,4.3c-7,2.5-10.9,8.4-10.9,15.8c0,10.3,0,20.7,0,31.1
		c0,7.5,3.9,13.3,10.8,15.9c2.2,0.8,3,1.9,2.9,4.2c-0.1,12.8-0.1,25.7-0.1,38.7c-6.5,2-11.4,5.7-13.2,12.5c-0.2,0.8-0.5,1.7-0.5,2.6
		c0,11.6-0.3,23.2,0.1,34.8c0.2,7,4.5,11.8,11,14.2c2.1,0.8,2.9,1.6,3.2,3.9c1.9,17.7,17.4,33.2,35.1,35.1c2.2,0.2,3.1,1.1,3.8,3.1
		c2.5,7,8.5,11.1,16,11.1c9.5,0,19,0,28.4,0c10.9,0,15.7-3.3,19.6-13.7H149c6.9,0,13.7,0.1,20.6,0c2.1,0,3,0.6,3.8,2.6
		c2.8,7.4,8.4,11.2,16.4,11.2c10.2,0,20.4,0,30.7,0c7.4,0,13-4,15.9-10.9c0.5-1.1,1.8-2.7,2.7-2.7c13.3-0.2,26.7-0.1,40.2-0.1
		c1.9,6.7,5.7,12.5,12.5,13c13.2,0.8,26.6,0.7,39.9,0c5.8-0.3,9.7-5,11.5-10.5c0.7-2.1,1.8-2.8,3.9-3c17.5-2,33-17.4,35-34.9
		c0.3-2.3,0.9-3.4,3.3-4.2c5.8-1.8,8.8-6.5,11.1-11.8v-39.7c-2.8-5.9-6.5-10.8-13.7-12.3v-18c0-7.2,0-14.4,0.1-21.7
		c0-1,0.7-2.6,1.4-2.9c6.3-2.1,10-6.6,12.2-12.6v-38.9c-2.2-6-5.9-10.6-12.2-12.6c-0.6-0.2-1.4-1.4-1.4-2.1
		c-0.1-13.3-0.1-26.6-0.1-40.4C389.8,128.9,393.7,124,396.5,118z M344.1,42.7c11.3,0,22.6,11.3,22.9,22.9c-6.7,0-13.4,0.1-20.1-0.1
		c-1,0-2.6-1.7-2.7-2.6C344,56.1,344.1,49.4,344.1,42.7z M237.4,42.5H279c0,6.9,0.1,13.6-0.1,20.3c0,0.9-1.7,2.5-2.6,2.5
		c-12,0.2-23.9,0.1-35.9,0.1c-2,0-3-0.8-3-2.8C237.4,56.1,237.4,49.5,237.4,42.5z M130.6,42.4h41.6c0,7,0.1,13.8-0.1,20.7
		c0,0.8-1.6,2.3-2.5,2.3c-12.1,0.2-24.2,0.2-36.3,0c-0.9,0-2.5-1.6-2.6-2.6C130.5,56.1,130.6,49.4,130.6,42.4z M65.5,42.6
		c0,6.8,0.1,13.6-0.1,20.4c0,0.9-1.8,2.4-2.8,2.4c-6.6,0.2-13.2,0.1-20,0.1C43,54.5,53.4,43.1,65.5,42.6z M65.5,367.2
		c-12.6-1.5-22.6-11.7-22.9-23.1c6.7,0,13.4-0.1,20.1,0.1c1,0,2.6,1.7,2.7,2.6C65.6,353.5,65.5,360.2,65.5,367.2z M172.2,367.1
		h-41.6c0-6.9-0.1-13.6,0.1-20.3c0-0.9,1.7-2.5,2.6-2.5c12-0.2,23.9-0.1,35.9-0.1c2,0,3,0.8,3,2.8
		C172.2,353.5,172.2,360.1,172.2,367.1z M279,367.2h-41.6c0-7-0.1-13.8,0.1-20.6c0-0.9,1.8-2.4,2.8-2.4c12-0.2,23.9-0.2,35.9,0
		c0.9,0,2.6,1.6,2.6,2.5C279.1,353.5,279,360.2,279,367.2z M344.1,367.1c0-6.8-0.1-13.4,0.1-20c0-1,1.5-2.8,2.4-2.8
		c6.8-0.2,13.6-0.1,20.4-0.1C366.4,355.9,356.3,366.1,344.1,367.1z M376.9,329.2c-10.1-0.2-20.2-0.1-30.3-0.1
		c-10.5,0-17.5,7-17.5,17.7c0,10.2-0.1,20.5,0,30.7c0,3.2-1.1,4.1-4.1,4.1c-9-0.2-18-0.2-26.9,0c-3,0-3.9-1.1-3.8-4
		c0.1-9.8,0.1-19.7,0-29.6c-0.1-12.3-6.6-18.9-19-18.9c-11.9,0-23.7,0-35.5,0c-10.2,0-17.4,7.1-17.6,17.3
		c-0.1,10.2-0.2,20.5,0.1,30.7c0.1,3.6-1.1,4.5-4.5,4.4c-8.9-0.2-17.7-0.1-26.6,0c-2.7,0-3.7-0.9-3.7-3.7c0.1-10.1,0.1-20.2,0-30.3
		c0-11.5-6.9-18.4-18.4-18.4c-11.8,0-23.7,0-35.5,0c-11.2,0-18,6.6-18.2,17.8c-0.1,10-0.2,20,0,29.9c0.1,3.6-1,4.8-4.7,4.7
		c-8.7-0.2-17.5-0.2-26.2,0c-3.1,0-4.1-1-4.1-4.1c0.2-10.4,0.1-20.7,0.1-31.1c0-10.1-7.1-17.2-17.2-17.2c-10.3,0-20.7-0.1-31.1,0
		c-3,0-4.2-0.8-4.2-4c0.2-9,0.2-18,0-26.9c0-2.9,1-4,3.9-3.9c9.7,0.1,19.5-0.2,29.2,0.1c13.5,0.4,19.9-9.3,19.5-19.4
		c-0.5-11.7-0.1-23.4-0.1-35.2c0-10.5-7.1-17.6-17.6-17.7c-10.4-0.1-20.7-0.1-31.1,0c-2.7,0-3.8-0.8-3.7-3.6
		c0.1-9.1,0.2-18.2,0-27.3c0-3,1.1-3.8,4-3.8c10,0.1,20,0.1,29.9,0c11.7,0,18.5-6.9,18.5-18.7c0-11.7,0-23.5,0-35.2
		c0-11.3-6.6-18.1-18.1-18.3c-9.9-0.2-19.7-0.2-29.6,0c-3.9,0.1-4.9-1.2-4.8-4.9c0.2-8.3,0.2-16.7,0-25.1c-0.1-3.7,0.9-5.1,4.8-5
		c10.1,0.3,20.2,0.1,30.3,0.1c10.2,0,17.3-7.1,17.3-17.5c0-10.3,0.1-20.7,0-31.1c0-3,1-3.9,3.9-3.9c9.1,0.1,18.2,0.1,27.3,0
		c2.9,0,3.7,1.1,3.7,3.8c-0.1,9.8,0.2,19.7-0.1,29.6c-0.4,13,9.2,19.7,19.3,19.2c11.8-0.5,23.7-0.1,35.5-0.1
		c10,0,17.2-7.1,17.4-17.2c0.1-10.4,0.1-20.7,0-31.1c0-3,0.7-4.3,3.9-4.2c9,0.2,18,0.2,26.9,0c2.9,0,3.9,0.9,3.9,3.9
		c-0.2,10.1-0.1,20.2,0,30.3c0,11.3,7,18.2,18.2,18.2c6,0,12,0,18,0c6,0,12,0,18,0c10.9,0,17.8-6.7,18-17.6c0.2-9.8,0-19.7,0-29.6
		c0-5.2,0-5.2,5.2-5.2c8.6,0,17.2,0.1,25.8-0.1c3,0,3.9,1,3.9,3.9c-0.1,10.4-0.1,20.7,0,31.1c0,10.3,7.1,17.4,17.4,17.4
		c10.3,0,20.7,0.1,31.1,0c2.9,0,4,0.9,4,3.8c-0.1,9.1-0.1,18.2,0,27.3c0,2.8-1,3.7-3.7,3.7c-9.8-0.1-19.7,0.2-29.6-0.1
		c-13.5-0.3-19.7,9.6-19.3,19.2c0.6,11.7,0.1,23.4,0.1,35.2c0,10.7,7.1,17.8,17.8,17.8c10.2,0.1,20.5,0.1,30.7,0
		c2.9,0,4,0.9,3.9,3.8c-0.2,9-0.2,18,0,26.9c0.1,3.2-1.2,4-4.2,4c-10-0.1-20-0.1-29.9,0c-11.5,0-18.3,7-18.3,18.5
		c0,11.7,0,23.4,0,35.2c0,11.6,6.6,18.4,18.3,18.5c9.7,0.1,19.5,0,29.2,0c4.9,0,4.9,0,4.9,5c0,8.4-0.1,16.7,0.1,25.1
		C381.6,327.9,380.7,329.3,376.9,329.2z M42.5,279v-41.5c7,0,13.9-0.1,20.7,0.1c0.8,0,2.3,1.6,2.3,2.5c0.2,12.1,0.2,24.2,0,36.3
		c0,0.9-1.4,2.5-2.2,2.5C56.4,279.1,49.5,279,42.5,279z M42.4,172.2v-41.6c7.1,0,14.1-0.1,21,0.1c0.7,0,2,1.8,2,2.8
		c0.1,12,0.2,23.9,0,35.9c0,0.9-1.6,2.6-2.5,2.7C56.2,172.3,49.5,172.2,42.4,172.2z M367.2,130.6v41.6c-7,0-14,0.1-20.9-0.1
		c-0.8,0-2.1-1.7-2.2-2.7c-0.1-12-0.1-23.9-0.1-35.9c0-2,0.8-2.9,2.9-2.9C353.6,130.6,360.2,130.6,367.2,130.6z M367.2,237.4V279
		c-7,0-13.7,0.1-20.4-0.1c-0.9,0-2.6-1.7-2.6-2.6c-0.2-12.1-0.2-24.2,0-36.3c0-0.9,1.5-2.5,2.4-2.5
		C353.4,237.4,360.2,237.4,367.2,237.4z"/>
	<path class="st0" d="M187.5,239.7c-0.1-10.2-7.3-17.4-17.5-17.5c-6.1-0.1-12.2,0-18.3,0s-12.2,0-18.3,0c-10.5,0.1-17.7,6.7-17.9,17
		c-0.3,12.7-0.3,25.4,0,38.2c0.2,9.7,6.4,16.4,16.1,16.8c13.3,0.5,26.7,0.5,40,0c9.6-0.4,15.9-7.6,15.9-17.3
		C187.6,264.4,187.6,252,187.5,239.7z M168.9,279.1c-11.6-0.1-23.2-0.1-34.8,0c-2.5,0-3.5-0.7-3.5-3.4c0.1-11.7,0.1-23.4,0-35.2
		c0-2.2,0.7-3.1,3-3.1c11.8,0,23.7,0.1,35.5,0c2.5,0,3.2,1.1,3.2,3.4c-0.1,5.7,0,11.5,0,17.2c0,5.8-0.1,11.7,0,17.6
		C172.3,278.1,171.5,279.1,168.9,279.1z"/>
	<path class="st0" d="M294.1,131.9c-0.2-9.5-6.5-16-16-16.4c-13.2-0.5-26.4-0.5-39.6,0c-9.9,0.3-16.2,7.5-16.3,17.4
		c-0.1,12.3-0.1,24.7,0,37c0.1,10.2,7.3,17.4,17.5,17.5c6.1,0.1,12.2,0,18.3,0c6.2,0,12.5,0.1,18.7,0c10-0.1,17.2-6.7,17.5-16.7
		C294.5,157.9,294.5,144.9,294.1,131.9z M279,151.3c0,5.7-0.1,11.5,0,17.2c0.1,2.7-0.7,3.8-3.5,3.8c-11.6-0.1-23.2-0.1-34.8,0
		c-2.7,0-3.4-1.1-3.4-3.6c0.1-11.5,0.1-22.9,0-34.4c0-2.6,0.7-3.8,3.6-3.7c11.5,0.1,22.9,0.2,34.4,0c3.1,0,3.8,1.1,3.7,3.9
		C278.9,140.1,279,145.7,279,151.3z"/>
	<path class="st0" d="M187.5,133.1c-0.1-9.9-6.3-17.2-16.1-17.5c-13.3-0.5-26.7-0.4-40,0c-9.3,0.3-15.6,6.8-15.8,16.2
		c-0.4,13.1-0.4,26.2,0,39.3c0.3,9.8,7.5,16.3,17.3,16.4c6.1,0.1,12.2,0,18.3,0c6.2,0,12.5,0.1,18.7,0c10.4-0.1,17.6-7.3,17.7-17.7
		C187.6,157.5,187.6,145.3,187.5,133.1z M172.3,168.5c0,2.7-0.7,3.8-3.6,3.8c-11.5-0.1-22.9-0.1-34.4,0c-2.7,0-3.8-0.7-3.7-3.6
		c0.2-11.5,0.2-22.9,0-34.4c0-3.1,1.1-3.8,3.9-3.7c5.7,0.2,11.5,0.1,17.2,0.1c5.5,0,11,0.1,16.5-0.1c3-0.1,4.2,0.7,4.2,3.9
		C172.1,145.8,172.2,157.1,172.3,168.5z"/>
	<path class="st0" d="M294.2,274.7c-0.1,5-3.1,8-7.5,8c-4.5,0-7.6-3.3-7.6-8.3c-0.1-11-0.1-21.9,0-32.9c0.1-3.1-1-4.1-4-4
		c-11.2,0.1-22.4,0.1-33.7,0c-3.1-0.1-4.1,1-4,4.1c0.1,10.9,0.1,21.7,0,32.5c0,5.8-3.3,9.3-8.1,9c-4-0.3-7-3.3-7.1-7.8
		c-0.1-12.2-0.2-24.4,0-36.7c0.2-9.3,7.5-16.2,17-16.4c6.2-0.1,12.5,0,18.7,0c6.2,0,12.5-0.1,18.7,0c10,0.1,17.2,6.6,17.5,16.6
		C294.5,250.7,294.3,262.7,294.2,274.7z"/>
	<path class="st0" d="M265.7,286.8c-0.1,4.1-3.3,7.3-7.4,7.4c-4.1,0.1-7.7-3.4-7.7-7.5c0-4,3.7-7.7,7.6-7.6
		C262.4,279.1,265.8,282.6,265.7,286.8z"/>
</g>
</svg>
